<svg xmlns="http://www.w3.org/2000/svg" version="1.1" xmlns:xlink="http://www.w3.org/1999/xlink" xmlns:svgjs="http://svgjs.com/svgjs" width="1440" height="560" preserveAspectRatio="none" viewBox="0 0 1440 560"><g mask="url(&quot;#SvgjsMask1052&quot;)" fill="none"><path d="M-79.6 546L-79.6 546" stroke="rgba(0, 183, 255, 1)" stroke-width="1.5"></path><path d="M-79.6 546L-54.71 638.32" stroke="rgba(0, 183, 255, 1)" stroke-width="1.5"></path><path d="M-79.6 546L58.57 529.55" stroke="rgba(0, 183, 255, 1)" stroke-width="1.5"></path><path d="M-54.71 638.32L-54.71 638.32" stroke="rgba(0, 183, 255, 1)" stroke-width="1.5"></path><path d="M-54.71 638.32L46.62 702.57" stroke="rgba(0, 183, 255, 1)" stroke-width="1.5"></path><path d="M-54.71 638.32L58.57 529.55" stroke="rgba(0, 183, 255, 1)" stroke-width="1.5"></path><path d="M-54.71 638.32L211.88 521.04" stroke="rgba(0, 183, 255, 1)" stroke-width="1.5"></path><path d="M110.02 363.8L110.02 363.8" stroke="rgba(0, 183, 255, 1)" stroke-width="1.5"></path><path d="M110.02 363.8L218.83 338.69" stroke="rgba(0, 183, 255, 1)" stroke-width="1.5"></path><path d="M110.02 363.8L58.57 529.55" stroke="rgba(0, 183, 255, 1)" stroke-width="1.5"></path><path d="M110.02 363.8L211.88 521.04" stroke="rgba(0, 183, 255, 1)" stroke-width="1.5"></path><path d="M110.02 363.8L-79.6 546" stroke="rgba(0, 183, 255, 1)" stroke-width="1.5"></path><path d="M58.57 529.55L58.57 529.55" stroke="rgba(0, 183, 255, 1)" stroke-width="1.5"></path><path d="M58.57 529.55L211.88 521.04" stroke="rgba(0, 183, 255, 1)" stroke-width="1.5"></path><path d="M46.62 702.57L46.62 702.57" stroke="rgba(0, 183, 255, 1)" stroke-width="1.5"></path><path d="M46.62 702.57L58.57 529.55" stroke="rgba(0, 183, 255, 1)" stroke-width="1.5"></path><path d="M46.62 702.57L-79.6 546" stroke="rgba(0, 183, 255, 1)" stroke-width="1.5"></path><path d="M46.62 702.57L211.88 521.04" stroke="rgba(0, 183, 255, 1)" stroke-width="1.5"></path><path d="M46.62 702.57L344.43 560.12" stroke="rgba(0, 183, 255, 1)" stroke-width="1.5"></path><path d="M46.62 702.57L110.02 363.8" stroke="rgba(0, 183, 255, 1)" stroke-width="1.5"></path><path d="M218.83 338.69L218.83 338.69" stroke="rgba(0, 183, 255, 1)" stroke-width="1.5"></path><path d="M218.83 338.69L211.88 521.04" stroke="rgba(0, 183, 255, 1)" stroke-width="1.5"></path><path d="M218.83 338.69L410.72 362.62" stroke="rgba(0, 183, 255, 1)" stroke-width="1.5"></path><path d="M211.88 521.04L211.88 521.04" stroke="rgba(0, 183, 255, 1)" stroke-width="1.5"></path><path d="M211.88 521.04L344.43 560.12" stroke="rgba(0, 183, 255, 1)" stroke-width="1.5"></path><path d="M211.88 521.04L410.72 362.62" stroke="rgba(0, 183, 255, 1)" stroke-width="1.5"></path><path d="M410.72 362.62L410.72 362.62" stroke="rgba(0, 183, 255, 1)" stroke-width="1.5"></path><path d="M410.72 362.62L507.27 383.65" stroke="rgba(0, 183, 255, 1)" stroke-width="1.5"></path><path d="M410.72 362.62L344.43 560.12" stroke="rgba(0, 183, 255, 1)" stroke-width="1.5"></path><path d="M410.72 362.62L517.22 555.55" stroke="rgba(0, 183, 255, 1)" stroke-width="1.5"></path><path d="M410.72 362.62L645.78 346.37" stroke="rgba(0, 183, 255, 1)" stroke-width="1.5"></path><path d="M344.43 560.12L344.43 560.12" stroke="rgba(0, 183, 255, 1)" stroke-width="1.5"></path><path d="M344.43 560.12L517.22 555.55" stroke="rgba(0, 183, 255, 1)" stroke-width="1.5"></path><path d="M507.27 383.65L507.27 383.65" stroke="rgba(0, 183, 255, 1)" stroke-width="1.5"></path><path d="M507.27 383.65L645.78 346.37" stroke="rgba(0, 183, 255, 1)" stroke-width="1.5"></path><path d="M507.27 383.65L517.22 555.55" stroke="rgba(0, 183, 255, 1)" stroke-width="1.5"></path><path d="M507.27 383.65L686.17 520.42" stroke="rgba(0, 183, 255, 1)" stroke-width="1.5"></path><path d="M507.27 383.65L344.43 560.12" stroke="rgba(0, 183, 255, 1)" stroke-width="1.5"></path><path d="M517.22 555.55L517.22 555.55" stroke="rgba(0, 183, 255, 1)" stroke-width="1.5"></path><path d="M517.22 555.55L543.94 655.08" stroke="rgba(0, 183, 255, 1)" stroke-width="1.5"></path><path d="M517.22 555.55L686.17 520.42" stroke="rgba(0, 183, 255, 1)" stroke-width="1.5"></path><path d="M517.22 555.55L684.54 689.14" stroke="rgba(0, 183, 255, 1)" stroke-width="1.5"></path><path d="M543.94 655.08L543.94 655.08" stroke="rgba(0, 183, 255, 1)" stroke-width="1.5"></path><path d="M543.94 655.08L684.54 689.14" stroke="rgba(0, 183, 255, 1)" stroke-width="1.5"></path><path d="M543.94 655.08L686.17 520.42" stroke="rgba(0, 183, 255, 1)" stroke-width="1.5"></path><path d="M543.94 655.08L344.43 560.12" stroke="rgba(0, 183, 255, 1)" stroke-width="1.5"></path><path d="M543.94 655.08L507.27 383.65" stroke="rgba(0, 183, 255, 1)" stroke-width="1.5"></path><path d="M645.78 346.37L645.78 346.37" stroke="rgba(0, 183, 255, 1)" stroke-width="1.5"></path><path d="M645.78 346.37L686.17 520.42" stroke="rgba(0, 183, 255, 1)" stroke-width="1.5"></path><path d="M645.78 346.37L801.53 212.06" stroke="rgba(0, 183, 255, 1)" stroke-width="1.5"></path><path d="M645.78 346.37L858.39 368.66" stroke="rgba(0, 183, 255, 1)" stroke-width="1.5"></path><path d="M686.17 520.42L686.17 520.42" stroke="rgba(0, 183, 255, 1)" stroke-width="1.5"></path><path d="M686.17 520.42L809.52 559.84" stroke="rgba(0, 183, 255, 1)" stroke-width="1.5"></path><path d="M686.17 520.42L684.54 689.14" stroke="rgba(0, 183, 255, 1)" stroke-width="1.5"></path><path d="M684.54 689.14L684.54 689.14" stroke="rgba(0, 183, 255, 1)" stroke-width="1.5"></path><path d="M684.54 689.14L809.52 559.84" stroke="rgba(0, 183, 255, 1)" stroke-width="1.5"></path><path d="M684.54 689.14L951.65 650.16" stroke="rgba(0, 183, 255, 1)" stroke-width="1.5"></path><path d="M840.84 102.7L840.84 102.7" stroke="rgba(0, 183, 255, 1)" stroke-width="1.5"></path><path d="M840.84 102.7L801.53 212.06" stroke="rgba(0, 183, 255, 1)" stroke-width="1.5"></path><path d="M840.84 102.7L961.12 75.14" stroke="rgba(0, 183, 255, 1)" stroke-width="1.5"></path><path d="M840.84 102.7L986.6 198.27" stroke="rgba(0, 183, 255, 1)" stroke-width="1.5"></path><path d="M801.53 212.06L801.53 212.06" stroke="rgba(0, 183, 255, 1)" stroke-width="1.5"></path><path d="M801.53 212.06L858.39 368.66" stroke="rgba(0, 183, 255, 1)" stroke-width="1.5"></path><path d="M801.53 212.06L986.6 198.27" stroke="rgba(0, 183, 255, 1)" stroke-width="1.5"></path><path d="M858.39 368.66L858.39 368.66" stroke="rgba(0, 183, 255, 1)" stroke-width="1.5"></path><path d="M858.39 368.66L952.09 400.25" stroke="rgba(0, 183, 255, 1)" stroke-width="1.5"></path><path d="M858.39 368.66L809.52 559.84" stroke="rgba(0, 183, 255, 1)" stroke-width="1.5"></path><path d="M858.39 368.66L954.22 549.27" stroke="rgba(0, 183, 255, 1)" stroke-width="1.5"></path><path d="M809.52 559.84L809.52 559.84" stroke="rgba(0, 183, 255, 1)" stroke-width="1.5"></path><path d="M809.52 559.84L954.22 549.27" stroke="rgba(0, 183, 255, 1)" stroke-width="1.5"></path><path d="M967.38 -102.49L967.38 -102.49" stroke="rgba(0, 183, 255, 1)" stroke-width="1.5"></path><path d="M967.38 -102.49L1116.14 -37.86" stroke="rgba(0, 183, 255, 1)" stroke-width="1.5"></path><path d="M961.12 75.14L961.12 75.14" stroke="rgba(0, 183, 255, 1)" stroke-width="1.5"></path><path d="M961.12 75.14L986.6 198.27" stroke="rgba(0, 183, 255, 1)" stroke-width="1.5"></path><path d="M961.12 75.14L967.38 -102.49" stroke="rgba(0, 183, 255, 1)" stroke-width="1.5"></path><path d="M961.12 75.14L1116.14 -37.86" stroke="rgba(0, 183, 255, 1)" stroke-width="1.5"></path><path d="M986.6 198.27L986.6 198.27" stroke="rgba(0, 183, 255, 1)" stroke-width="1.5"></path><path d="M986.6 198.27L1135.29 190.39" stroke="rgba(0, 183, 255, 1)" stroke-width="1.5"></path><path d="M986.6 198.27L952.09 400.25" stroke="rgba(0, 183, 255, 1)" stroke-width="1.5"></path><path d="M952.09 400.25L952.09 400.25" stroke="rgba(0, 183, 255, 1)" stroke-width="1.5"></path><path d="M952.09 400.25L954.22 549.27" stroke="rgba(0, 183, 255, 1)" stroke-width="1.5"></path><path d="M952.09 400.25L1090.27 495.83" stroke="rgba(0, 183, 255, 1)" stroke-width="1.5"></path><path d="M952.09 400.25L1140.91 347.22" stroke="rgba(0, 183, 255, 1)" stroke-width="1.5"></path><path d="M954.22 549.27L954.22 549.27" stroke="rgba(0, 183, 255, 1)" stroke-width="1.5"></path><path d="M954.22 549.27L951.65 650.16" stroke="rgba(0, 183, 255, 1)" stroke-width="1.5"></path><path d="M951.65 650.16L951.65 650.16" stroke="rgba(0, 183, 255, 1)" stroke-width="1.5"></path><path d="M951.65 650.16L1104.29 711.97" stroke="rgba(0, 183, 255, 1)" stroke-width="1.5"></path><path d="M951.65 650.16L809.52 559.84" stroke="rgba(0, 183, 255, 1)" stroke-width="1.5"></path><path d="M951.65 650.16L1090.27 495.83" stroke="rgba(0, 183, 255, 1)" stroke-width="1.5"></path><path d="M1116.14 -37.86L1116.14 -37.86" stroke="rgba(0, 183, 255, 1)" stroke-width="1.5"></path><path d="M1116.14 -37.86L1240.29 -43.96" stroke="rgba(0, 183, 255, 1)" stroke-width="1.5"></path><path d="M1116.14 -37.86L1240.19 77" stroke="rgba(0, 183, 255, 1)" stroke-width="1.5"></path><path d="M1135.29 190.39L1135.29 190.39" stroke="rgba(0, 183, 255, 1)" stroke-width="1.5"></path><path d="M1135.29 190.39L1266.37 203.93" stroke="rgba(0, 183, 255, 1)" stroke-width="1.5"></path><path d="M1135.29 190.39L1240.19 77" stroke="rgba(0, 183, 255, 1)" stroke-width="1.5"></path><path d="M1135.29 190.39L1140.91 347.22" stroke="rgba(0, 183, 255, 1)" stroke-width="1.5"></path><path d="M1135.29 190.39L961.12 75.14" stroke="rgba(0, 183, 255, 1)" stroke-width="1.5"></path><path d="M1135.29 190.39L1287.73 350.7" stroke="rgba(0, 183, 255, 1)" stroke-width="1.5"></path><path d="M1140.91 347.22L1140.91 347.22" stroke="rgba(0, 183, 255, 1)" stroke-width="1.5"></path><path d="M1140.91 347.22L1287.73 350.7" stroke="rgba(0, 183, 255, 1)" stroke-width="1.5"></path><path d="M1140.91 347.22L1090.27 495.83" stroke="rgba(0, 183, 255, 1)" stroke-width="1.5"></path><path d="M1140.91 347.22L1266.37 203.93" stroke="rgba(0, 183, 255, 1)" stroke-width="1.5"></path><path d="M1140.91 347.22L1257.59 516.45" stroke="rgba(0, 183, 255, 1)" stroke-width="1.5"></path><path d="M1090.27 495.83L1090.27 495.83" stroke="rgba(0, 183, 255, 1)" stroke-width="1.5"></path><path d="M1090.27 495.83L954.22 549.27" stroke="rgba(0, 183, 255, 1)" stroke-width="1.5"></path><path d="M1090.27 495.83L1257.59 516.45" stroke="rgba(0, 183, 255, 1)" stroke-width="1.5"></path><path d="M1104.29 711.97L1104.29 711.97" stroke="rgba(0, 183, 255, 1)" stroke-width="1.5"></path><path d="M1104.29 711.97L1304.84 641.29" stroke="rgba(0, 183, 255, 1)" stroke-width="1.5"></path><path d="M1240.29 -43.96L1240.29 -43.96" stroke="rgba(0, 183, 255, 1)" stroke-width="1.5"></path><path d="M1240.29 -43.96L1240.19 77" stroke="rgba(0, 183, 255, 1)" stroke-width="1.5"></path><path d="M1240.29 -43.96L1400.79 -51.62" stroke="rgba(0, 183, 255, 1)" stroke-width="1.5"></path><path d="M1240.19 77L1240.19 77" stroke="rgba(0, 183, 255, 1)" stroke-width="1.5"></path><path d="M1240.19 77L1266.37 203.93" stroke="rgba(0, 183, 255, 1)" stroke-width="1.5"></path><path d="M1240.19 77L1438.24 98.77" stroke="rgba(0, 183, 255, 1)" stroke-width="1.5"></path><path d="M1266.37 203.93L1266.37 203.93" stroke="rgba(0, 183, 255, 1)" stroke-width="1.5"></path><path d="M1266.37 203.93L1287.73 350.7" stroke="rgba(0, 183, 255, 1)" stroke-width="1.5"></path><path d="M1266.37 203.93L1438.24 98.77" stroke="rgba(0, 183, 255, 1)" stroke-width="1.5"></path><path d="M1287.73 350.7L1287.73 350.7" stroke="rgba(0, 183, 255, 1)" stroke-width="1.5"></path><path d="M1287.73 350.7L1409.11 382.34" stroke="rgba(0, 183, 255, 1)" stroke-width="1.5"></path><path d="M1287.73 350.7L1257.59 516.45" stroke="rgba(0, 183, 255, 1)" stroke-width="1.5"></path><path d="M1287.73 350.7L1394.17 525.78" stroke="rgba(0, 183, 255, 1)" stroke-width="1.5"></path><path d="M1257.59 516.45L1257.59 516.45" stroke="rgba(0, 183, 255, 1)" stroke-width="1.5"></path><path d="M1257.59 516.45L1304.84 641.29" stroke="rgba(0, 183, 255, 1)" stroke-width="1.5"></path><path d="M1304.84 641.29L1304.84 641.29" stroke="rgba(0, 183, 255, 1)" stroke-width="1.5"></path><path d="M1304.84 641.29L1421.37 659.44" stroke="rgba(0, 183, 255, 1)" stroke-width="1.5"></path><path d="M1304.84 641.29L1394.17 525.78" stroke="rgba(0, 183, 255, 1)" stroke-width="1.5"></path><path d="M1400.79 -51.62L1400.79 -51.62" stroke="rgba(0, 183, 255, 1)" stroke-width="1.5"></path><path d="M1400.79 -51.62L1438.24 98.77" stroke="rgba(0, 183, 255, 1)" stroke-width="1.5"></path><path d="M1400.79 -51.62L1240.19 77" stroke="rgba(0, 183, 255, 1)" stroke-width="1.5"></path><path d="M1400.79 -51.62L1611.52 -101.92" stroke="rgba(0, 183, 255, 1)" stroke-width="1.5"></path><path d="M1400.79 -51.62L1116.14 -37.86" stroke="rgba(0, 183, 255, 1)" stroke-width="1.5"></path><path d="M1400.79 -51.62L1266.37 203.93" stroke="rgba(0, 183, 255, 1)" stroke-width="1.5"></path><path d="M1438.24 98.77L1438.24 98.77" stroke="rgba(0, 183, 255, 1)" stroke-width="1.5"></path><path d="M1438.24 98.77L1577.22 236.55" stroke="rgba(0, 183, 255, 1)" stroke-width="1.5"></path><path d="M1409.11 382.34L1409.11 382.34" stroke="rgba(0, 183, 255, 1)" stroke-width="1.5"></path><path d="M1409.11 382.34L1394.17 525.78" stroke="rgba(0, 183, 255, 1)" stroke-width="1.5"></path><path d="M1409.11 382.34L1559.97 377.45" stroke="rgba(0, 183, 255, 1)" stroke-width="1.5"></path><path d="M1394.17 525.78L1394.17 525.78" stroke="rgba(0, 183, 255, 1)" stroke-width="1.5"></path><path d="M1394.17 525.78L1421.37 659.44" stroke="rgba(0, 183, 255, 1)" stroke-width="1.5"></path><path d="M1421.37 659.44L1421.37 659.44" stroke="rgba(0, 183, 255, 1)" stroke-width="1.5"></path><path d="M1421.37 659.44L1547.69 699.92" stroke="rgba(0, 183, 255, 1)" stroke-width="1.5"></path><path d="M1421.37 659.44L1538.45 538.2" stroke="rgba(0, 183, 255, 1)" stroke-width="1.5"></path><path d="M1421.37 659.44L1257.59 516.45" stroke="rgba(0, 183, 255, 1)" stroke-width="1.5"></path><path d="M1421.37 659.44L1409.11 382.34" stroke="rgba(0, 183, 255, 1)" stroke-width="1.5"></path><path d="M1611.52 -101.92L1611.52 -101.92" stroke="rgba(0, 183, 255, 1)" stroke-width="1.5"></path><path d="M1611.52 -101.92L1438.24 98.77" stroke="rgba(0, 183, 255, 1)" stroke-width="1.5"></path><path d="M1577.22 236.55L1577.22 236.55" stroke="rgba(0, 183, 255, 1)" stroke-width="1.5"></path><path d="M1577.22 236.55L1559.97 377.45" stroke="rgba(0, 183, 255, 1)" stroke-width="1.5"></path><path d="M1559.97 377.45L1559.97 377.45" stroke="rgba(0, 183, 255, 1)" stroke-width="1.5"></path><path d="M1538.45 538.2L1538.45 538.2" stroke="rgba(0, 183, 255, 1)" stroke-width="1.5"></path><path d="M1538.45 538.2L1394.17 525.78" stroke="rgba(0, 183, 255, 1)" stroke-width="1.5"></path><path d="M1538.45 538.2L1547.69 699.92" stroke="rgba(0, 183, 255, 1)" stroke-width="1.5"></path><path d="M1538.45 538.2L1559.97 377.45" stroke="rgba(0, 183, 255, 1)" stroke-width="1.5"></path><path d="M1547.69 699.92L1547.69 699.92" stroke="rgba(0, 183, 255, 1)" stroke-width="1.5"></path><path d="M1547.69 699.92L1394.17 525.78" stroke="rgba(0, 183, 255, 1)" stroke-width="1.5"></path><circle r="5" cx="-79.6" cy="546" fill="rgba(0, 183, 255, 1)"></circle><circle r="5" cx="-54.71" cy="638.32" fill="rgba(0, 183, 255, 1)"></circle><circle r="5" cx="110.02" cy="363.8" fill="rgba(0, 183, 255, 1)"></circle><circle r="5" cx="58.57" cy="529.55" fill="rgba(0, 183, 255, 1)"></circle><circle r="5" cx="46.62" cy="702.57" fill="rgba(0, 183, 255, 1)"></circle><circle r="5" cx="218.83" cy="338.69" fill="rgba(0, 183, 255, 1)"></circle><circle r="5" cx="211.88" cy="521.04" fill="rgba(0, 183, 255, 1)"></circle><circle r="5" cx="410.72" cy="362.62" fill="rgba(0, 183, 255, 1)"></circle><circle r="5" cx="344.43" cy="560.12" fill="rgba(0, 183, 255, 1)"></circle><circle r="5" cx="507.27" cy="383.65" fill="rgba(0, 183, 255, 1)"></circle><circle r="5" cx="517.22" cy="555.55" fill="rgba(0, 183, 255, 1)"></circle><circle r="5" cx="543.94" cy="655.08" fill="rgba(0, 183, 255, 1)"></circle><circle r="5" cx="645.78" cy="346.37" fill="rgba(0, 183, 255, 1)"></circle><circle r="5" cx="686.17" cy="520.42" fill="rgba(0, 183, 255, 1)"></circle><circle r="5" cx="684.54" cy="689.14" fill="rgba(0, 183, 255, 1)"></circle><circle r="5" cx="840.84" cy="102.7" fill="rgba(0, 183, 255, 1)"></circle><circle r="5" cx="801.53" cy="212.06" fill="rgba(0, 183, 255, 1)"></circle><circle r="5" cx="858.39" cy="368.66" fill="rgba(0, 183, 255, 1)"></circle><circle r="5" cx="809.52" cy="559.84" fill="rgba(0, 183, 255, 1)"></circle><circle r="5" cx="967.38" cy="-102.49" fill="rgba(0, 183, 255, 1)"></circle><circle r="5" cx="961.12" cy="75.14" fill="rgba(0, 183, 255, 1)"></circle><circle r="5" cx="986.6" cy="198.27" fill="rgba(0, 183, 255, 1)"></circle><circle r="5" cx="952.09" cy="400.25" fill="rgba(0, 183, 255, 1)"></circle><circle r="5" cx="954.22" cy="549.27" fill="rgba(0, 183, 255, 1)"></circle><circle r="5" cx="951.65" cy="650.16" fill="rgba(0, 183, 255, 1)"></circle><circle r="5" cx="1116.14" cy="-37.86" fill="rgba(0, 183, 255, 1)"></circle><circle r="5" cx="1135.29" cy="190.39" fill="rgba(0, 183, 255, 1)"></circle><circle r="5" cx="1140.91" cy="347.22" fill="rgba(0, 183, 255, 1)"></circle><circle r="5" cx="1090.27" cy="495.83" fill="rgba(0, 183, 255, 1)"></circle><circle r="5" cx="1104.29" cy="711.97" fill="rgba(0, 183, 255, 1)"></circle><circle r="5" cx="1240.29" cy="-43.96" fill="rgba(0, 183, 255, 1)"></circle><circle r="5" cx="1240.19" cy="77" fill="rgba(0, 183, 255, 1)"></circle><circle r="5" cx="1266.37" cy="203.93" fill="rgba(0, 183, 255, 1)"></circle><circle r="5" cx="1287.73" cy="350.7" fill="rgba(0, 183, 255, 1)"></circle><circle r="5" cx="1257.59" cy="516.45" fill="rgba(0, 183, 255, 1)"></circle><circle r="5" cx="1304.84" cy="641.29" fill="rgba(0, 183, 255, 1)"></circle><circle r="5" cx="1400.79" cy="-51.62" fill="rgba(0, 183, 255, 1)"></circle><circle r="5" cx="1438.24" cy="98.77" fill="rgba(0, 183, 255, 1)"></circle><circle r="5" cx="1409.11" cy="382.34" fill="rgba(0, 183, 255, 1)"></circle><circle r="5" cx="1394.17" cy="525.78" fill="rgba(0, 183, 255, 1)"></circle><circle r="5" cx="1421.37" cy="659.44" fill="rgba(0, 183, 255, 1)"></circle><circle r="5" cx="1611.52" cy="-101.92" fill="rgba(0, 183, 255, 1)"></circle><circle r="5" cx="1577.22" cy="236.55" fill="rgba(0, 183, 255, 1)"></circle><circle r="5" cx="1559.97" cy="377.45" fill="rgba(0, 183, 255, 1)"></circle><circle r="5" cx="1538.45" cy="538.2" fill="rgba(0, 183, 255, 1)"></circle><circle r="5" cx="1547.69" cy="699.92" fill="rgba(0, 183, 255, 1)"></circle><path d="M-95.3 541.63L-95.3 541.63" stroke="hsla(196.89999999999998, 100%, 65%, 0.49)" stroke-width="1.5"></path><path d="M-95.3 541.63L-86.85 687.03" stroke="hsla(196.89999999999998, 100%, 65%, 0.49)" stroke-width="1.5"></path><path d="M-95.3 541.63L63.87 525.13" stroke="hsla(196.89999999999998, 100%, 65%, 0.49)" stroke-width="1.5"></path><path d="M-95.3 541.63L109.56 645.01" stroke="hsla(196.89999999999998, 100%, 65%, 0.49)" stroke-width="1.5"></path><path d="M-95.3 541.63L246.83 546.72" stroke="hsla(196.89999999999998, 100%, 65%, 0.49)" stroke-width="1.5"></path><path d="M-95.3 541.63L406.42 546.58" stroke="hsla(196.89999999999998, 100%, 65%, 0.49)" stroke-width="1.5"></path><path d="M63.87 525.13L63.87 525.13" stroke="hsla(196.89999999999998, 100%, 65%, 0.49)" stroke-width="1.5"></path><path d="M63.87 525.13L109.56 645.01" stroke="hsla(196.89999999999998, 100%, 65%, 0.49)" stroke-width="1.5"></path><path d="M63.87 525.13L246.83 546.72" stroke="hsla(196.89999999999998, 100%, 65%, 0.49)" stroke-width="1.5"></path><path d="M63.87 525.13L-86.85 687.03" stroke="hsla(196.89999999999998, 100%, 65%, 0.49)" stroke-width="1.5"></path><path d="M63.87 525.13L406.42 546.58" stroke="hsla(196.89999999999998, 100%, 65%, 0.49)" stroke-width="1.5"></path><path d="M109.56 645.01L109.56 645.01" stroke="hsla(196.89999999999998, 100%, 65%, 0.49)" stroke-width="1.5"></path><path d="M109.56 645.01L246.83 546.72" stroke="hsla(196.89999999999998, 100%, 65%, 0.49)" stroke-width="1.5"></path><path d="M109.56 645.01L-86.85 687.03" stroke="hsla(196.89999999999998, 100%, 65%, 0.49)" stroke-width="1.5"></path><path d="M109.56 645.01L406.42 546.58" stroke="hsla(196.89999999999998, 100%, 65%, 0.49)" stroke-width="1.5"></path><path d="M246.83 546.72L246.83 546.72" stroke="hsla(196.89999999999998, 100%, 65%, 0.49)" stroke-width="1.5"></path><path d="M246.83 546.72L406.42 546.58" stroke="hsla(196.89999999999998, 100%, 65%, 0.49)" stroke-width="1.5"></path><path d="M246.83 546.72L498.05 488.48" stroke="hsla(196.89999999999998, 100%, 65%, 0.49)" stroke-width="1.5"></path><path d="M504 704.9L504 704.9" stroke="hsla(196.89999999999998, 100%, 65%, 0.49)" stroke-width="1.5"></path><path d="M504 704.9L650.73 699.07" stroke="hsla(196.89999999999998, 100%, 65%, 0.49)" stroke-width="1.5"></path><path d="M504 704.9L406.42 546.58" stroke="hsla(196.89999999999998, 100%, 65%, 0.49)" stroke-width="1.5"></path><path d="M504 704.9L498.05 488.48" stroke="hsla(196.89999999999998, 100%, 65%, 0.49)" stroke-width="1.5"></path><path d="M504 704.9L645.95 520.31" stroke="hsla(196.89999999999998, 100%, 65%, 0.49)" stroke-width="1.5"></path><path d="M504 704.9L246.83 546.72" stroke="hsla(196.89999999999998, 100%, 65%, 0.49)" stroke-width="1.5"></path><path d="M504 704.9L829.93 706.39" stroke="hsla(196.89999999999998, 100%, 65%, 0.49)" stroke-width="1.5"></path><path d="M958.07 521.9L958.07 521.9" stroke="hsla(196.89999999999998, 100%, 65%, 0.49)" stroke-width="1.5"></path><path d="M958.07 521.9L1096.73 521.42" stroke="hsla(196.89999999999998, 100%, 65%, 0.49)" stroke-width="1.5"></path><path d="M958.07 521.9L818.27 498.86" stroke="hsla(196.89999999999998, 100%, 65%, 0.49)" stroke-width="1.5"></path><path d="M1152.45 -43.69L1152.45 -43.69" stroke="hsla(196.89999999999998, 100%, 65%, 0.49)" stroke-width="1.5"></path><path d="M1152.45 -43.69L1295.06 -87.79" stroke="hsla(196.89999999999998, 100%, 65%, 0.49)" stroke-width="1.5"></path><path d="M1152.45 -43.69L1298.62 100.02" stroke="hsla(196.89999999999998, 100%, 65%, 0.49)" stroke-width="1.5"></path><path d="M1152.45 -43.69L1291.36 199.83" stroke="hsla(196.89999999999998, 100%, 65%, 0.49)" stroke-width="1.5"></path><path d="M1152.45 -43.69L1109.6 239.43" stroke="hsla(196.89999999999998, 100%, 65%, 0.49)" stroke-width="1.5"></path><path d="M1152.45 -43.69L1437.43 -87.94" stroke="hsla(196.89999999999998, 100%, 65%, 0.49)" stroke-width="1.5"></path><path d="M1540.43 640.72L1540.43 640.72" stroke="hsla(196.89999999999998, 100%, 65%, 0.49)" stroke-width="1.5"></path><path d="M1540.43 640.72L1420.19 557.74" stroke="hsla(196.89999999999998, 100%, 65%, 0.49)" stroke-width="1.5"></path><path d="M1540.43 640.72L1393.44 699.72" stroke="hsla(196.89999999999998, 100%, 65%, 0.49)" stroke-width="1.5"></path><path d="M1540.43 640.72L1307.04 696.47" stroke="hsla(196.89999999999998, 100%, 65%, 0.49)" stroke-width="1.5"></path><path d="M1540.43 640.72L1558.69 385.09" stroke="hsla(196.89999999999998, 100%, 65%, 0.49)" stroke-width="1.5"></path><path d="M-86.85 687.03L-86.85 687.03" stroke="hsla(196.89999999999998, 100%, 65%, 0.49)" stroke-width="1.5"></path><path d="M-86.85 687.03L246.83 546.72" stroke="hsla(196.89999999999998, 100%, 65%, 0.49)" stroke-width="1.5"></path><path d="M406.42 546.58L406.42 546.58" stroke="hsla(196.89999999999998, 100%, 65%, 0.49)" stroke-width="1.5"></path><path d="M406.42 546.58L498.05 488.48" stroke="hsla(196.89999999999998, 100%, 65%, 0.49)" stroke-width="1.5"></path><path d="M406.42 546.58L645.95 520.31" stroke="hsla(196.89999999999998, 100%, 65%, 0.49)" stroke-width="1.5"></path><path d="M406.42 546.58L650.73 699.07" stroke="hsla(196.89999999999998, 100%, 65%, 0.49)" stroke-width="1.5"></path><path d="M498.05 488.48L498.05 488.48" stroke="hsla(196.89999999999998, 100%, 65%, 0.49)" stroke-width="1.5"></path><path d="M498.05 488.48L645.95 520.31" stroke="hsla(196.89999999999998, 100%, 65%, 0.49)" stroke-width="1.5"></path><path d="M498.05 488.48L650.73 699.07" stroke="hsla(196.89999999999998, 100%, 65%, 0.49)" stroke-width="1.5"></path><path d="M645.95 520.31L645.95 520.31" stroke="hsla(196.89999999999998, 100%, 65%, 0.49)" stroke-width="1.5"></path><path d="M645.95 520.31L818.27 498.86" stroke="hsla(196.89999999999998, 100%, 65%, 0.49)" stroke-width="1.5"></path><path d="M645.95 520.31L650.73 699.07" stroke="hsla(196.89999999999998, 100%, 65%, 0.49)" stroke-width="1.5"></path><path d="M650.73 699.07L650.73 699.07" stroke="hsla(196.89999999999998, 100%, 65%, 0.49)" stroke-width="1.5"></path><path d="M650.73 699.07L829.93 706.39" stroke="hsla(196.89999999999998, 100%, 65%, 0.49)" stroke-width="1.5"></path><path d="M650.73 699.07L818.27 498.86" stroke="hsla(196.89999999999998, 100%, 65%, 0.49)" stroke-width="1.5"></path><path d="M853.66 380.29L853.66 380.29" stroke="hsla(196.89999999999998, 100%, 65%, 0.49)" stroke-width="1.5"></path><path d="M853.66 380.29L818.27 498.86" stroke="hsla(196.89999999999998, 100%, 65%, 0.49)" stroke-width="1.5"></path><path d="M853.66 380.29L958.07 521.9" stroke="hsla(196.89999999999998, 100%, 65%, 0.49)" stroke-width="1.5"></path><path d="M818.27 498.86L818.27 498.86" stroke="hsla(196.89999999999998, 100%, 65%, 0.49)" stroke-width="1.5"></path><path d="M829.93 706.39L829.93 706.39" stroke="hsla(196.89999999999998, 100%, 65%, 0.49)" stroke-width="1.5"></path><path d="M829.93 706.39L1000.04 706.31" stroke="hsla(196.89999999999998, 100%, 65%, 0.49)" stroke-width="1.5"></path><path d="M1003.41 226.94L1003.41 226.94" stroke="hsla(196.89999999999998, 100%, 65%, 0.49)" stroke-width="1.5"></path><path d="M1003.41 226.94L1109.6 239.43" stroke="hsla(196.89999999999998, 100%, 65%, 0.49)" stroke-width="1.5"></path><path d="M1003.41 226.94L853.66 380.29" stroke="hsla(196.89999999999998, 100%, 65%, 0.49)" stroke-width="1.5"></path><path d="M1003.41 226.94L1291.36 199.83" stroke="hsla(196.89999999999998, 100%, 65%, 0.49)" stroke-width="1.5"></path><path d="M1003.41 226.94L958.07 521.9" stroke="hsla(196.89999999999998, 100%, 65%, 0.49)" stroke-width="1.5"></path><path d="M1003.41 226.94L1096.73 521.42" stroke="hsla(196.89999999999998, 100%, 65%, 0.49)" stroke-width="1.5"></path><path d="M1000.04 706.31L1000.04 706.31" stroke="hsla(196.89999999999998, 100%, 65%, 0.49)" stroke-width="1.5"></path><path d="M1000.04 706.31L1151.43 677.29" stroke="hsla(196.89999999999998, 100%, 65%, 0.49)" stroke-width="1.5"></path><path d="M1000.04 706.31L958.07 521.9" stroke="hsla(196.89999999999998, 100%, 65%, 0.49)" stroke-width="1.5"></path><path d="M1109.6 239.43L1109.6 239.43" stroke="hsla(196.89999999999998, 100%, 65%, 0.49)" stroke-width="1.5"></path><path d="M1109.6 239.43L1291.36 199.83" stroke="hsla(196.89999999999998, 100%, 65%, 0.49)" stroke-width="1.5"></path><path d="M1109.6 239.43L1264.57 398.46" stroke="hsla(196.89999999999998, 100%, 65%, 0.49)" stroke-width="1.5"></path><path d="M1109.6 239.43L1298.62 100.02" stroke="hsla(196.89999999999998, 100%, 65%, 0.49)" stroke-width="1.5"></path><path d="M1109.6 239.43L1096.73 521.42" stroke="hsla(196.89999999999998, 100%, 65%, 0.49)" stroke-width="1.5"></path><path d="M1096.73 521.42L1096.73 521.42" stroke="hsla(196.89999999999998, 100%, 65%, 0.49)" stroke-width="1.5"></path><path d="M1096.73 521.42L1151.43 677.29" stroke="hsla(196.89999999999998, 100%, 65%, 0.49)" stroke-width="1.5"></path><path d="M1151.43 677.29L1151.43 677.29" stroke="hsla(196.89999999999998, 100%, 65%, 0.49)" stroke-width="1.5"></path><path d="M1151.43 677.29L1307.04 696.47" stroke="hsla(196.89999999999998, 100%, 65%, 0.49)" stroke-width="1.5"></path><path d="M1151.43 677.29L1307.28 499.91" stroke="hsla(196.89999999999998, 100%, 65%, 0.49)" stroke-width="1.5"></path><path d="M1295.06 -87.79L1295.06 -87.79" stroke="hsla(196.89999999999998, 100%, 65%, 0.49)" stroke-width="1.5"></path><path d="M1295.06 -87.79L1437.43 -87.94" stroke="hsla(196.89999999999998, 100%, 65%, 0.49)" stroke-width="1.5"></path><path d="M1295.06 -87.79L1298.62 100.02" stroke="hsla(196.89999999999998, 100%, 65%, 0.49)" stroke-width="1.5"></path><path d="M1295.06 -87.79L1456.32 38.16" stroke="hsla(196.89999999999998, 100%, 65%, 0.49)" stroke-width="1.5"></path><path d="M1295.06 -87.79L1572.33 -95.74" stroke="hsla(196.89999999999998, 100%, 65%, 0.49)" stroke-width="1.5"></path><path d="M1298.62 100.02L1298.62 100.02" stroke="hsla(196.89999999999998, 100%, 65%, 0.49)" stroke-width="1.5"></path><path d="M1298.62 100.02L1291.36 199.83" stroke="hsla(196.89999999999998, 100%, 65%, 0.49)" stroke-width="1.5"></path><path d="M1298.62 100.02L1456.32 38.16" stroke="hsla(196.89999999999998, 100%, 65%, 0.49)" stroke-width="1.5"></path><path d="M1298.62 100.02L1395.99 257.89" stroke="hsla(196.89999999999998, 100%, 65%, 0.49)" stroke-width="1.5"></path><path d="M1291.36 199.83L1291.36 199.83" stroke="hsla(196.89999999999998, 100%, 65%, 0.49)" stroke-width="1.5"></path><path d="M1291.36 199.83L1395.99 257.89" stroke="hsla(196.89999999999998, 100%, 65%, 0.49)" stroke-width="1.5"></path><path d="M1264.57 398.46L1264.57 398.46" stroke="hsla(196.89999999999998, 100%, 65%, 0.49)" stroke-width="1.5"></path><path d="M1264.57 398.46L1307.28 499.91" stroke="hsla(196.89999999999998, 100%, 65%, 0.49)" stroke-width="1.5"></path><path d="M1264.57 398.46L1395.99 257.89" stroke="hsla(196.89999999999998, 100%, 65%, 0.49)" stroke-width="1.5"></path><path d="M1264.57 398.46L1291.36 199.83" stroke="hsla(196.89999999999998, 100%, 65%, 0.49)" stroke-width="1.5"></path><path d="M1307.28 499.91L1307.28 499.91" stroke="hsla(196.89999999999998, 100%, 65%, 0.49)" stroke-width="1.5"></path><path d="M1307.28 499.91L1420.19 557.74" stroke="hsla(196.89999999999998, 100%, 65%, 0.49)" stroke-width="1.5"></path><path d="M1307.28 499.91L1307.04 696.47" stroke="hsla(196.89999999999998, 100%, 65%, 0.49)" stroke-width="1.5"></path><path d="M1307.28 499.91L1096.73 521.42" stroke="hsla(196.89999999999998, 100%, 65%, 0.49)" stroke-width="1.5"></path><path d="M1307.28 499.91L1393.44 699.72" stroke="hsla(196.89999999999998, 100%, 65%, 0.49)" stroke-width="1.5"></path><path d="M1307.04 696.47L1307.04 696.47" stroke="hsla(196.89999999999998, 100%, 65%, 0.49)" stroke-width="1.5"></path><path d="M1307.04 696.47L1393.44 699.72" stroke="hsla(196.89999999999998, 100%, 65%, 0.49)" stroke-width="1.5"></path><path d="M1307.04 696.47L1420.19 557.74" stroke="hsla(196.89999999999998, 100%, 65%, 0.49)" stroke-width="1.5"></path><path d="M1307.04 696.47L1096.73 521.42" stroke="hsla(196.89999999999998, 100%, 65%, 0.49)" stroke-width="1.5"></path><path d="M1437.43 -87.94L1437.43 -87.94" stroke="hsla(196.89999999999998, 100%, 65%, 0.49)" stroke-width="1.5"></path><path d="M1437.43 -87.94L1456.32 38.16" stroke="hsla(196.89999999999998, 100%, 65%, 0.49)" stroke-width="1.5"></path><path d="M1437.43 -87.94L1572.33 -95.74" stroke="hsla(196.89999999999998, 100%, 65%, 0.49)" stroke-width="1.5"></path><path d="M1456.32 38.16L1456.32 38.16" stroke="hsla(196.89999999999998, 100%, 65%, 0.49)" stroke-width="1.5"></path><path d="M1456.32 38.16L1595.04 82.03" stroke="hsla(196.89999999999998, 100%, 65%, 0.49)" stroke-width="1.5"></path><path d="M1395.99 257.89L1395.99 257.89" stroke="hsla(196.89999999999998, 100%, 65%, 0.49)" stroke-width="1.5"></path><path d="M1420.19 557.74L1420.19 557.74" stroke="hsla(196.89999999999998, 100%, 65%, 0.49)" stroke-width="1.5"></path><path d="M1420.19 557.74L1393.44 699.72" stroke="hsla(196.89999999999998, 100%, 65%, 0.49)" stroke-width="1.5"></path><path d="M1420.19 557.74L1558.69 385.09" stroke="hsla(196.89999999999998, 100%, 65%, 0.49)" stroke-width="1.5"></path><path d="M1393.44 699.72L1393.44 699.72" stroke="hsla(196.89999999999998, 100%, 65%, 0.49)" stroke-width="1.5"></path><path d="M1393.44 699.72L1151.43 677.29" stroke="hsla(196.89999999999998, 100%, 65%, 0.49)" stroke-width="1.5"></path><path d="M1393.44 699.72L1264.57 398.46" stroke="hsla(196.89999999999998, 100%, 65%, 0.49)" stroke-width="1.5"></path><path d="M1572.33 -95.74L1572.33 -95.74" stroke="hsla(196.89999999999998, 100%, 65%, 0.49)" stroke-width="1.5"></path><path d="M1572.33 -95.74L1456.32 38.16" stroke="hsla(196.89999999999998, 100%, 65%, 0.49)" stroke-width="1.5"></path><path d="M1572.33 -95.74L1595.04 82.03" stroke="hsla(196.89999999999998, 100%, 65%, 0.49)" stroke-width="1.5"></path><path d="M1572.33 -95.74L1553.43 216.01" stroke="hsla(196.89999999999998, 100%, 65%, 0.49)" stroke-width="1.5"></path><path d="M1595.04 82.03L1595.04 82.03" stroke="hsla(196.89999999999998, 100%, 65%, 0.49)" stroke-width="1.5"></path><path d="M1595.04 82.03L1553.43 216.01" stroke="hsla(196.89999999999998, 100%, 65%, 0.49)" stroke-width="1.5"></path><path d="M1595.04 82.03L1437.43 -87.94" stroke="hsla(196.89999999999998, 100%, 65%, 0.49)" stroke-width="1.5"></path><path d="M1595.04 82.03L1395.99 257.89" stroke="hsla(196.89999999999998, 100%, 65%, 0.49)" stroke-width="1.5"></path><path d="M1595.04 82.03L1298.62 100.02" stroke="hsla(196.89999999999998, 100%, 65%, 0.49)" stroke-width="1.5"></path><path d="M1553.43 216.01L1553.43 216.01" stroke="hsla(196.89999999999998, 100%, 65%, 0.49)" stroke-width="1.5"></path><path d="M1553.43 216.01L1395.99 257.89" stroke="hsla(196.89999999999998, 100%, 65%, 0.49)" stroke-width="1.5"></path><path d="M1558.69 385.09L1558.69 385.09" stroke="hsla(196.89999999999998, 100%, 65%, 0.49)" stroke-width="1.5"></path><path d="M1558.69 385.09L1553.43 216.01" stroke="hsla(196.89999999999998, 100%, 65%, 0.49)" stroke-width="1.5"></path><path d="M1558.69 385.09L1395.99 257.89" stroke="hsla(196.89999999999998, 100%, 65%, 0.49)" stroke-width="1.5"></path><path d="M1558.69 385.09L1307.28 499.91" stroke="hsla(196.89999999999998, 100%, 65%, 0.49)" stroke-width="1.5"></path><circle r="25" cx="-95.3" cy="541.63" fill="url(#SvgjsRadialGradient1053)"></circle><circle r="25" cx="63.87" cy="525.13" fill="url(#SvgjsRadialGradient1053)"></circle><circle r="25" cx="109.56" cy="645.01" fill="url(#SvgjsRadialGradient1053)"></circle><circle r="25" cx="246.83" cy="546.72" fill="url(#SvgjsRadialGradient1053)"></circle><circle r="25" cx="504" cy="704.9" fill="url(#SvgjsRadialGradient1053)"></circle><circle r="25" cx="958.07" cy="521.9" fill="url(#SvgjsRadialGradient1053)"></circle><circle r="25" cx="1152.45" cy="-43.69" fill="url(#SvgjsRadialGradient1053)"></circle><circle r="25" cx="1540.43" cy="640.72" fill="url(#SvgjsRadialGradient1053)"></circle><circle r="5" cx="-86.85" cy="687.03" fill="rgba(193, 237, 255, 0.745)"></circle><circle r="5" cx="406.42" cy="546.58" fill="rgba(193, 237, 255, 0.745)"></circle><circle r="5" cx="498.05" cy="488.48" fill="rgba(193, 237, 255, 0.745)"></circle><circle r="5" cx="645.95" cy="520.31" fill="rgba(193, 237, 255, 0.745)"></circle><circle r="5" cx="650.73" cy="699.07" fill="rgba(193, 237, 255, 0.745)"></circle><circle r="5" cx="853.66" cy="380.29" fill="rgba(193, 237, 255, 0.745)"></circle><circle r="5" cx="818.27" cy="498.86" fill="rgba(193, 237, 255, 0.745)"></circle><circle r="5" cx="829.93" cy="706.39" fill="rgba(193, 237, 255, 0.745)"></circle><circle r="5" cx="1003.41" cy="226.94" fill="rgba(193, 237, 255, 0.745)"></circle><circle r="5" cx="1000.04" cy="706.31" fill="rgba(193, 237, 255, 0.745)"></circle><circle r="5" cx="1109.6" cy="239.43" fill="rgba(193, 237, 255, 0.745)"></circle><circle r="5" cx="1096.73" cy="521.42" fill="rgba(193, 237, 255, 0.745)"></circle><circle r="5" cx="1151.43" cy="677.29" fill="rgba(193, 237, 255, 0.745)"></circle><circle r="5" cx="1295.06" cy="-87.79" fill="rgba(193, 237, 255, 0.745)"></circle><circle r="5" cx="1298.62" cy="100.02" fill="rgba(193, 237, 255, 0.745)"></circle><circle r="5" cx="1291.36" cy="199.83" fill="rgba(193, 237, 255, 0.745)"></circle><circle r="5" cx="1264.57" cy="398.46" fill="rgba(193, 237, 255, 0.745)"></circle><circle r="5" cx="1307.28" cy="499.91" fill="rgba(193, 237, 255, 0.745)"></circle><circle r="5" cx="1307.04" cy="696.47" fill="rgba(193, 237, 255, 0.745)"></circle><circle r="5" cx="1437.43" cy="-87.94" fill="rgba(193, 237, 255, 0.745)"></circle><circle r="5" cx="1456.32" cy="38.16" fill="rgba(193, 237, 255, 0.745)"></circle><circle r="5" cx="1395.99" cy="257.89" fill="rgba(193, 237, 255, 0.745)"></circle><circle r="5" cx="1420.19" cy="557.74" fill="rgba(193, 237, 255, 0.745)"></circle><circle r="5" cx="1393.44" cy="699.72" fill="rgba(193, 237, 255, 0.745)"></circle><circle r="5" cx="1572.33" cy="-95.74" fill="rgba(193, 237, 255, 0.745)"></circle><circle r="5" cx="1595.04" cy="82.03" fill="rgba(193, 237, 255, 0.745)"></circle><circle r="5" cx="1553.43" cy="216.01" fill="rgba(193, 237, 255, 0.745)"></circle><circle r="5" cx="1558.69" cy="385.09" fill="rgba(193, 237, 255, 0.745)"></circle></g><defs><mask id="SvgjsMask1052"><rect width="1440" height="560" fill="#ffffff"></rect></mask><radialGradient id="SvgjsRadialGradient1053"><stop stop-color="#ffffff" offset="0.1"></stop><stop stop-color="rgba(0, 183, 255, 0.49)" offset="0.2"></stop><stop stop-color="rgba(0, 183, 255, 0)" offset="1"></stop></radialGradient></defs></svg>