<svg xmlns="http://www.w3.org/2000/svg" version="1.1" xmlns:xlink="http://www.w3.org/1999/xlink" xmlns:svgjs="http://svgjs.com/svgjs" width="1440" height="560" preserveAspectRatio="none" viewBox="0 0 1440 560"><g mask="url(&quot;#SvgjsMask1228&quot;)" fill="none"><path d="M29.31 27.69L48.37 38.69L48.37 60.69L29.31 71.69L10.26 60.69L10.26 38.69zM10.26 126.69L29.31 137.69L29.31 159.69L10.26 170.69L-8.79 159.69L-8.79 137.69zM10.26 192.69L29.31 203.69L29.31 225.69L10.26 236.69L-8.79 225.69L-8.79 203.69zM10.26 390.69L29.31 401.69L29.31 423.69L10.26 434.69L-8.79 423.69L-8.79 401.69zM29.31 489.69L48.37 500.69L48.37 522.69L29.31 533.69L10.26 522.69L10.26 500.69zM48.37 -5.31L67.42 5.69L67.42 27.69L48.37 38.69L29.31 27.69L29.31 5.69zM67.42 159.69L86.47 170.69L86.47 192.69L67.42 203.69L48.37 192.69L48.37 170.69zM67.42 291.69L86.47 302.69L86.47 324.69L67.42 335.69L48.37 324.69L48.37 302.69zM67.42 489.69L86.47 500.69L86.47 522.69L67.42 533.69L48.37 522.69L48.37 500.69zM86.47 60.69L105.53 71.69L105.53 93.69L86.47 104.69L67.42 93.69L67.42 71.69zM86.47 192.69L105.53 203.69L105.53 225.69L86.47 236.69L67.42 225.69L67.42 203.69zM105.53 225.69L124.58 236.69L124.58 258.69L105.53 269.69L86.47 258.69L86.47 236.69zM105.53 423.69L124.58 434.69L124.58 456.69L105.53 467.69L86.47 456.69L86.47 434.69zM124.58 -5.31L143.63 5.69L143.63 27.69L124.58 38.69L105.53 27.69L105.53 5.69zM124.58 192.69L143.63 203.69L143.63 225.69L124.58 236.69L105.53 225.69L105.53 203.69zM124.58 258.69L143.63 269.69L143.63 291.69L124.58 302.69L105.53 291.69L105.53 269.69zM162.68 -5.31L181.74 5.69L181.74 27.69L162.68 38.69L143.63 27.69L143.63 5.69zM162.68 126.69L181.74 137.69L181.74 159.69L162.68 170.69L143.63 159.69L143.63 137.69zM162.68 192.69L181.74 203.69L181.74 225.69L162.68 236.69L143.63 225.69L143.63 203.69zM181.74 423.69L200.79 434.69L200.79 456.69L181.74 467.69L162.68 456.69L162.68 434.69zM200.79 -5.31L219.84 5.69L219.84 27.69L200.79 38.69L181.74 27.69L181.74 5.69zM200.79 126.69L219.84 137.69L219.84 159.69L200.79 170.69L181.74 159.69L181.74 137.69zM200.79 192.69L219.84 203.69L219.84 225.69L200.79 236.69L181.74 225.69L181.74 203.69zM200.79 522.69L219.84 533.69L219.84 555.69L200.79 566.69L181.74 555.69L181.74 533.69zM238.9 60.69L257.95 71.69L257.95 93.69L238.9 104.69L219.84 93.69L219.84 71.69zM238.9 192.69L257.95 203.69L257.95 225.69L238.9 236.69L219.84 225.69L219.84 203.69zM257.95 225.69L277 236.69L277 258.69L257.95 269.69L238.9 258.69L238.9 236.69zM238.9 258.69L257.95 269.69L257.95 291.69L238.9 302.69L219.84 291.69L219.84 269.69zM257.95 357.69L277 368.69L277 390.69L257.95 401.69L238.9 390.69L238.9 368.69zM277 126.69L296.06 137.69L296.06 159.69L277 170.69L257.95 159.69L257.95 137.69zM277 192.69L296.06 203.69L296.06 225.69L277 236.69L257.95 225.69L257.95 203.69zM296.06 489.69L315.11 500.69L315.11 522.69L296.06 533.69L277 522.69L277 500.69zM296.06 555.69L315.11 566.69L315.11 588.69L296.06 599.69L277 588.69L277 566.69zM315.11 126.69L334.16 137.69L334.16 159.69L315.11 170.69L296.06 159.69L296.06 137.69zM334.16 357.69L353.22 368.69L353.22 390.69L334.16 401.69L315.11 390.69L315.11 368.69zM334.16 423.69L353.22 434.69L353.22 456.69L334.16 467.69L315.11 456.69L315.11 434.69zM334.16 489.69L353.22 500.69L353.22 522.69L334.16 533.69L315.11 522.69L315.11 500.69zM372.27 93.69L391.32 104.69L391.32 126.69L372.27 137.69L353.22 126.69L353.22 104.69zM372.27 159.69L391.32 170.69L391.32 192.69L372.27 203.69L353.22 192.69L353.22 170.69zM372.27 225.69L391.32 236.69L391.32 258.69L372.27 269.69L353.22 258.69L353.22 236.69zM353.22 456.69L372.27 467.69L372.27 489.69L353.22 500.69L334.16 489.69L334.16 467.69zM353.22 522.69L372.27 533.69L372.27 555.69L353.22 566.69L334.16 555.69L334.16 533.69zM391.32 -5.31L410.38 5.69L410.38 27.69L391.32 38.69L372.27 27.69L372.27 5.69zM410.38 27.69L429.43 38.69L429.43 60.69L410.38 71.69L391.32 60.69L391.32 38.69zM391.32 60.69L410.38 71.69L410.38 93.69L391.32 104.69L372.27 93.69L372.27 71.69zM410.38 423.69L429.43 434.69L429.43 456.69L410.38 467.69L391.32 456.69L391.32 434.69zM429.43 -5.31L448.48 5.69L448.48 27.69L429.43 38.69L410.38 27.69L410.38 5.69zM448.48 93.69L467.53 104.69L467.53 126.69L448.48 137.69L429.43 126.69L429.43 104.69zM429.43 126.69L448.48 137.69L448.48 159.69L429.43 170.69L410.38 159.69L410.38 137.69zM448.48 159.69L467.53 170.69L467.53 192.69L448.48 203.69L429.43 192.69L429.43 170.69zM448.48 225.69L467.53 236.69L467.53 258.69L448.48 269.69L429.43 258.69L429.43 236.69zM429.43 324.69L448.48 335.69L448.48 357.69L429.43 368.69L410.38 357.69L410.38 335.69zM429.43 390.69L448.48 401.69L448.48 423.69L429.43 434.69L410.38 423.69L410.38 401.69zM448.48 423.69L467.53 434.69L467.53 456.69L448.48 467.69L429.43 456.69L429.43 434.69zM429.43 456.69L448.48 467.69L448.48 489.69L429.43 500.69L410.38 489.69L410.38 467.69zM448.48 489.69L467.53 500.69L467.53 522.69L448.48 533.69L429.43 522.69L429.43 500.69zM486.59 27.69L505.64 38.69L505.64 60.69L486.59 71.69L467.53 60.69L467.53 38.69zM486.59 93.69L505.64 104.69L505.64 126.69L486.59 137.69L467.53 126.69L467.53 104.69zM467.53 192.69L486.59 203.69L486.59 225.69L467.53 236.69L448.48 225.69L448.48 203.69zM486.59 225.69L505.64 236.69L505.64 258.69L486.59 269.69L467.53 258.69L467.53 236.69zM467.53 258.69L486.59 269.69L486.59 291.69L467.53 302.69L448.48 291.69L448.48 269.69zM467.53 324.69L486.59 335.69L486.59 357.69L467.53 368.69L448.48 357.69L448.48 335.69zM467.53 390.69L486.59 401.69L486.59 423.69L467.53 434.69L448.48 423.69L448.48 401.69zM486.59 555.69L505.64 566.69L505.64 588.69L486.59 599.69L467.53 588.69L467.53 566.69zM524.69 27.69L543.75 38.69L543.75 60.69L524.69 71.69L505.64 60.69L505.64 38.69zM505.64 60.69L524.69 71.69L524.69 93.69L505.64 104.69L486.59 93.69L486.59 71.69zM505.64 126.69L524.69 137.69L524.69 159.69L505.64 170.69L486.59 159.69L486.59 137.69zM524.69 225.69L543.75 236.69L543.75 258.69L524.69 269.69L505.64 258.69L505.64 236.69zM505.64 522.69L524.69 533.69L524.69 555.69L505.64 566.69L486.59 555.69L486.59 533.69zM562.8 159.69L581.85 170.69L581.85 192.69L562.8 203.69L543.75 192.69L543.75 170.69zM543.75 258.69L562.8 269.69L562.8 291.69L543.75 302.69L524.69 291.69L524.69 269.69zM562.8 291.69L581.85 302.69L581.85 324.69L562.8 335.69L543.75 324.69L543.75 302.69zM543.75 324.69L562.8 335.69L562.8 357.69L543.75 368.69L524.69 357.69L524.69 335.69zM562.8 357.69L581.85 368.69L581.85 390.69L562.8 401.69L543.75 390.69L543.75 368.69zM562.8 489.69L581.85 500.69L581.85 522.69L562.8 533.69L543.75 522.69L543.75 500.69zM562.8 555.69L581.85 566.69L581.85 588.69L562.8 599.69L543.75 588.69L543.75 566.69zM581.85 -5.31L600.91 5.69L600.91 27.69L581.85 38.69L562.8 27.69L562.8 5.69zM581.85 60.69L600.91 71.69L600.91 93.69L581.85 104.69L562.8 93.69L562.8 71.69zM600.91 93.69L619.96 104.69L619.96 126.69L600.91 137.69L581.85 126.69L581.85 104.69zM581.85 192.69L600.91 203.69L600.91 225.69L581.85 236.69L562.8 225.69L562.8 203.69zM600.91 225.69L619.96 236.69L619.96 258.69L600.91 269.69L581.85 258.69L581.85 236.69zM581.85 456.69L600.91 467.69L600.91 489.69L581.85 500.69L562.8 489.69L562.8 467.69zM581.85 522.69L600.91 533.69L600.91 555.69L581.85 566.69L562.8 555.69L562.8 533.69zM600.91 555.69L619.96 566.69L619.96 588.69L600.91 599.69L581.85 588.69L581.85 566.69zM639.01 27.69L658.07 38.69L658.07 60.69L639.01 71.69L619.96 60.69L619.96 38.69zM619.96 60.69L639.01 71.69L639.01 93.69L619.96 104.69L600.91 93.69L600.91 71.69zM639.01 159.69L658.07 170.69L658.07 192.69L639.01 203.69L619.96 192.69L619.96 170.69zM619.96 390.69L639.01 401.69L639.01 423.69L619.96 434.69L600.91 423.69L600.91 401.69zM639.01 423.69L658.07 434.69L658.07 456.69L639.01 467.69L619.96 456.69L619.96 434.69zM619.96 456.69L639.01 467.69L639.01 489.69L619.96 500.69L600.91 489.69L600.91 467.69zM658.07 -5.31L677.12 5.69L677.12 27.69L658.07 38.69L639.01 27.69L639.01 5.69zM677.12 93.69L696.17 104.69L696.17 126.69L677.12 137.69L658.07 126.69L658.07 104.69zM658.07 192.69L677.12 203.69L677.12 225.69L658.07 236.69L639.01 225.69L639.01 203.69zM677.12 225.69L696.17 236.69L696.17 258.69L677.12 269.69L658.07 258.69L658.07 236.69zM658.07 258.69L677.12 269.69L677.12 291.69L658.07 302.69L639.01 291.69L639.01 269.69zM658.07 324.69L677.12 335.69L677.12 357.69L658.07 368.69L639.01 357.69L639.01 335.69zM658.07 456.69L677.12 467.69L677.12 489.69L658.07 500.69L639.01 489.69L639.01 467.69zM696.17 192.69L715.22 203.69L715.22 225.69L696.17 236.69L677.12 225.69L677.12 203.69zM715.22 225.69L734.28 236.69L734.28 258.69L715.22 269.69L696.17 258.69L696.17 236.69zM696.17 258.69L715.22 269.69L715.22 291.69L696.17 302.69L677.12 291.69L677.12 269.69zM715.22 357.69L734.28 368.69L734.28 390.69L715.22 401.69L696.17 390.69L696.17 368.69zM696.17 456.69L715.22 467.69L715.22 489.69L696.17 500.69L677.12 489.69L677.12 467.69zM715.22 489.69L734.28 500.69L734.28 522.69L715.22 533.69L696.17 522.69L696.17 500.69zM696.17 522.69L715.22 533.69L715.22 555.69L696.17 566.69L677.12 555.69L677.12 533.69zM734.28 60.69L753.33 71.69L753.33 93.69L734.28 104.69L715.22 93.69L715.22 71.69zM753.33 93.69L772.38 104.69L772.38 126.69L753.33 137.69L734.28 126.69L734.28 104.69zM753.33 225.69L772.38 236.69L772.38 258.69L753.33 269.69L734.28 258.69L734.28 236.69zM734.28 258.69L753.33 269.69L753.33 291.69L734.28 302.69L715.22 291.69L715.22 269.69zM753.33 357.69L772.38 368.69L772.38 390.69L753.33 401.69L734.28 390.69L734.28 368.69zM753.33 555.69L772.38 566.69L772.38 588.69L753.33 599.69L734.28 588.69L734.28 566.69zM791.44 291.69L810.49 302.69L810.49 324.69L791.44 335.69L772.38 324.69L772.38 302.69zM791.44 357.69L810.49 368.69L810.49 390.69L791.44 401.69L772.38 390.69L772.38 368.69zM772.38 390.69L791.44 401.69L791.44 423.69L772.38 434.69L753.33 423.69L753.33 401.69zM829.54 27.69L848.6 38.69L848.6 60.69L829.54 71.69L810.49 60.69L810.49 38.69zM810.49 126.69L829.54 137.69L829.54 159.69L810.49 170.69L791.44 159.69L791.44 137.69zM810.49 192.69L829.54 203.69L829.54 225.69L810.49 236.69L791.44 225.69L791.44 203.69zM810.49 258.69L829.54 269.69L829.54 291.69L810.49 302.69L791.44 291.69L791.44 269.69zM829.54 291.69L848.6 302.69L848.6 324.69L829.54 335.69L810.49 324.69L810.49 302.69zM848.6 -5.31L867.65 5.69L867.65 27.69L848.6 38.69L829.54 27.69L829.54 5.69zM848.6 192.69L867.65 203.69L867.65 225.69L848.6 236.69L829.54 225.69L829.54 203.69zM867.65 423.69L886.7 434.69L886.7 456.69L867.65 467.69L848.6 456.69L848.6 434.69zM848.6 456.69L867.65 467.69L867.65 489.69L848.6 500.69L829.54 489.69L829.54 467.69zM867.65 489.69L886.7 500.69L886.7 522.69L867.65 533.69L848.6 522.69L848.6 500.69zM867.65 555.69L886.7 566.69L886.7 588.69L867.65 599.69L848.6 588.69L848.6 566.69zM905.76 27.69L924.81 38.69L924.81 60.69L905.76 71.69L886.7 60.69L886.7 38.69zM905.76 93.69L924.81 104.69L924.81 126.69L905.76 137.69L886.7 126.69L886.7 104.69zM886.7 192.69L905.76 203.69L905.76 225.69L886.7 236.69L867.65 225.69L867.65 203.69zM905.76 291.69L924.81 302.69L924.81 324.69L905.76 335.69L886.7 324.69L886.7 302.69zM905.76 357.69L924.81 368.69L924.81 390.69L905.76 401.69L886.7 390.69L886.7 368.69zM905.76 489.69L924.81 500.69L924.81 522.69L905.76 533.69L886.7 522.69L886.7 500.69zM905.76 555.69L924.81 566.69L924.81 588.69L905.76 599.69L886.7 588.69L886.7 566.69zM943.86 27.69L962.91 38.69L962.91 60.69L943.86 71.69L924.81 60.69L924.81 38.69zM943.86 93.69L962.91 104.69L962.91 126.69L943.86 137.69L924.81 126.69L924.81 104.69zM924.81 126.69L943.86 137.69L943.86 159.69L924.81 170.69L905.76 159.69L905.76 137.69zM943.86 225.69L962.91 236.69L962.91 258.69L943.86 269.69L924.81 258.69L924.81 236.69zM924.81 258.69L943.86 269.69L943.86 291.69L924.81 302.69L905.76 291.69L905.76 269.69zM943.86 291.69L962.91 302.69L962.91 324.69L943.86 335.69L924.81 324.69L924.81 302.69zM924.81 390.69L943.86 401.69L943.86 423.69L924.81 434.69L905.76 423.69L905.76 401.69zM943.86 423.69L962.91 434.69L962.91 456.69L943.86 467.69L924.81 456.69L924.81 434.69zM924.81 456.69L943.86 467.69L943.86 489.69L924.81 500.69L905.76 489.69L905.76 467.69zM962.91 126.69L981.97 137.69L981.97 159.69L962.91 170.69L943.86 159.69L943.86 137.69zM981.97 291.69L1001.02 302.69L1001.02 324.69L981.97 335.69L962.91 324.69L962.91 302.69zM981.97 423.69L1001.02 434.69L1001.02 456.69L981.97 467.69L962.91 456.69L962.91 434.69zM962.91 456.69L981.97 467.69L981.97 489.69L962.91 500.69L943.86 489.69L943.86 467.69zM981.97 555.69L1001.02 566.69L1001.02 588.69L981.97 599.69L962.91 588.69L962.91 566.69zM1020.07 27.69L1039.13 38.69L1039.13 60.69L1020.07 71.69L1001.02 60.69L1001.02 38.69zM1001.02 60.69L1020.07 71.69L1020.07 93.69L1001.02 104.69L981.97 93.69L981.97 71.69zM1001.02 126.69L1020.07 137.69L1020.07 159.69L1001.02 170.69L981.97 159.69L981.97 137.69zM1001.02 192.69L1020.07 203.69L1020.07 225.69L1001.02 236.69L981.97 225.69L981.97 203.69zM1020.07 357.69L1039.13 368.69L1039.13 390.69L1020.07 401.69L1001.02 390.69L1001.02 368.69zM1001.02 456.69L1020.07 467.69L1020.07 489.69L1001.02 500.69L981.97 489.69L981.97 467.69zM1058.18 93.69L1077.23 104.69L1077.23 126.69L1058.18 137.69L1039.13 126.69L1039.13 104.69zM1039.13 192.69L1058.18 203.69L1058.18 225.69L1039.13 236.69L1020.07 225.69L1020.07 203.69zM1039.13 324.69L1058.18 335.69L1058.18 357.69L1039.13 368.69L1020.07 357.69L1020.07 335.69zM1058.18 357.69L1077.23 368.69L1077.23 390.69L1058.18 401.69L1039.13 390.69L1039.13 368.69zM1058.18 423.69L1077.23 434.69L1077.23 456.69L1058.18 467.69L1039.13 456.69L1039.13 434.69zM1096.29 27.69L1115.34 38.69L1115.34 60.69L1096.29 71.69L1077.23 60.69L1077.23 38.69zM1096.29 93.69L1115.34 104.69L1115.34 126.69L1096.29 137.69L1077.23 126.69L1077.23 104.69zM1077.23 192.69L1096.29 203.69L1096.29 225.69L1077.23 236.69L1058.18 225.69L1058.18 203.69zM1077.23 258.69L1096.29 269.69L1096.29 291.69L1077.23 302.69L1058.18 291.69L1058.18 269.69zM1077.23 324.69L1096.29 335.69L1096.29 357.69L1077.23 368.69L1058.18 357.69L1058.18 335.69zM1096.29 357.69L1115.34 368.69L1115.34 390.69L1096.29 401.69L1077.23 390.69L1077.23 368.69zM1096.29 489.69L1115.34 500.69L1115.34 522.69L1096.29 533.69L1077.23 522.69L1077.23 500.69zM1134.39 357.69L1153.45 368.69L1153.45 390.69L1134.39 401.69L1115.34 390.69L1115.34 368.69zM1134.39 423.69L1153.45 434.69L1153.45 456.69L1134.39 467.69L1115.34 456.69L1115.34 434.69zM1115.34 522.69L1134.39 533.69L1134.39 555.69L1115.34 566.69L1096.29 555.69L1096.29 533.69zM1134.39 555.69L1153.45 566.69L1153.45 588.69L1134.39 599.69L1115.34 588.69L1115.34 566.69zM1172.5 27.69L1191.55 38.69L1191.55 60.69L1172.5 71.69L1153.45 60.69L1153.45 38.69zM1153.45 60.69L1172.5 71.69L1172.5 93.69L1153.45 104.69L1134.39 93.69L1134.39 71.69zM1172.5 93.69L1191.55 104.69L1191.55 126.69L1172.5 137.69L1153.45 126.69L1153.45 104.69zM1153.45 258.69L1172.5 269.69L1172.5 291.69L1153.45 302.69L1134.39 291.69L1134.39 269.69zM1153.45 324.69L1172.5 335.69L1172.5 357.69L1153.45 368.69L1134.39 357.69L1134.39 335.69zM1153.45 390.69L1172.5 401.69L1172.5 423.69L1153.45 434.69L1134.39 423.69L1134.39 401.69zM1172.5 423.69L1191.55 434.69L1191.55 456.69L1172.5 467.69L1153.45 456.69L1153.45 434.69zM1153.45 456.69L1172.5 467.69L1172.5 489.69L1153.45 500.69L1134.39 489.69L1134.39 467.69zM1172.5 489.69L1191.55 500.69L1191.55 522.69L1172.5 533.69L1153.45 522.69L1153.45 500.69zM1153.45 522.69L1172.5 533.69L1172.5 555.69L1153.45 566.69L1134.39 555.69L1134.39 533.69zM1191.55 60.69L1210.61 71.69L1210.61 93.69L1191.55 104.69L1172.5 93.69L1172.5 71.69zM1210.61 93.69L1229.66 104.69L1229.66 126.69L1210.61 137.69L1191.55 126.69L1191.55 104.69zM1210.61 159.69L1229.66 170.69L1229.66 192.69L1210.61 203.69L1191.55 192.69L1191.55 170.69zM1191.55 192.69L1210.61 203.69L1210.61 225.69L1191.55 236.69L1172.5 225.69L1172.5 203.69zM1210.61 291.69L1229.66 302.69L1229.66 324.69L1210.61 335.69L1191.55 324.69L1191.55 302.69zM1191.55 390.69L1210.61 401.69L1210.61 423.69L1191.55 434.69L1172.5 423.69L1172.5 401.69zM1210.61 423.69L1229.66 434.69L1229.66 456.69L1210.61 467.69L1191.55 456.69L1191.55 434.69zM1191.55 456.69L1210.61 467.69L1210.61 489.69L1191.55 500.69L1172.5 489.69L1172.5 467.69zM1210.61 555.69L1229.66 566.69L1229.66 588.69L1210.61 599.69L1191.55 588.69L1191.55 566.69zM1229.66 -5.31L1248.71 5.69L1248.71 27.69L1229.66 38.69L1210.61 27.69L1210.61 5.69zM1248.71 27.69L1267.76 38.69L1267.76 60.69L1248.71 71.69L1229.66 60.69L1229.66 38.69zM1248.71 159.69L1267.76 170.69L1267.76 192.69L1248.71 203.69L1229.66 192.69L1229.66 170.69zM1229.66 324.69L1248.71 335.69L1248.71 357.69L1229.66 368.69L1210.61 357.69L1210.61 335.69zM1229.66 522.69L1248.71 533.69L1248.71 555.69L1229.66 566.69L1210.61 555.69L1210.61 533.69zM1267.76 60.69L1286.82 71.69L1286.82 93.69L1267.76 104.69L1248.71 93.69L1248.71 71.69zM1286.82 291.69L1305.87 302.69L1305.87 324.69L1286.82 335.69L1267.76 324.69L1267.76 302.69zM1286.82 357.69L1305.87 368.69L1305.87 390.69L1286.82 401.69L1267.76 390.69L1267.76 368.69zM1305.87 126.69L1324.92 137.69L1324.92 159.69L1305.87 170.69L1286.82 159.69L1286.82 137.69zM1305.87 324.69L1324.92 335.69L1324.92 357.69L1305.87 368.69L1286.82 357.69L1286.82 335.69zM1324.92 357.69L1343.98 368.69L1343.98 390.69L1324.92 401.69L1305.87 390.69L1305.87 368.69zM1305.87 390.69L1324.92 401.69L1324.92 423.69L1305.87 434.69L1286.82 423.69L1286.82 401.69zM1305.87 456.69L1324.92 467.69L1324.92 489.69L1305.87 500.69L1286.82 489.69L1286.82 467.69zM1343.98 -5.31L1363.03 5.69L1363.03 27.69L1343.98 38.69L1324.92 27.69L1324.92 5.69zM1363.03 27.69L1382.08 38.69L1382.08 60.69L1363.03 71.69L1343.98 60.69L1343.98 38.69zM1343.98 60.69L1363.03 71.69L1363.03 93.69L1343.98 104.69L1324.92 93.69L1324.92 71.69zM1343.98 192.69L1363.03 203.69L1363.03 225.69L1343.98 236.69L1324.92 225.69L1324.92 203.69zM1363.03 225.69L1382.08 236.69L1382.08 258.69L1363.03 269.69L1343.98 258.69L1343.98 236.69zM1363.03 291.69L1382.08 302.69L1382.08 324.69L1363.03 335.69L1343.98 324.69L1343.98 302.69zM1343.98 456.69L1363.03 467.69L1363.03 489.69L1343.98 500.69L1324.92 489.69L1324.92 467.69zM1343.98 522.69L1363.03 533.69L1363.03 555.69L1343.98 566.69L1324.92 555.69L1324.92 533.69zM1363.03 555.69L1382.08 566.69L1382.08 588.69L1363.03 599.69L1343.98 588.69L1343.98 566.69zM1382.08 -5.31L1401.14 5.69L1401.14 27.69L1382.08 38.69L1363.03 27.69L1363.03 5.69zM1382.08 60.69L1401.14 71.69L1401.14 93.69L1382.08 104.69L1363.03 93.69L1363.03 71.69zM1382.08 258.69L1401.14 269.69L1401.14 291.69L1382.08 302.69L1363.03 291.69L1363.03 269.69zM1382.08 324.69L1401.14 335.69L1401.14 357.69L1382.08 368.69L1363.03 357.69L1363.03 335.69zM1401.14 357.69L1420.19 368.69L1420.19 390.69L1401.14 401.69L1382.08 390.69L1382.08 368.69zM1382.08 456.69L1401.14 467.69L1401.14 489.69L1382.08 500.69L1363.03 489.69L1363.03 467.69zM1401.14 555.69L1420.19 566.69L1420.19 588.69L1401.14 599.69L1382.08 588.69L1382.08 566.69zM1420.19 -5.31L1439.24 5.69L1439.24 27.69L1420.19 38.69L1401.14 27.69L1401.14 5.69zM1439.24 225.69L1458.3 236.69L1458.3 258.69L1439.24 269.69L1420.19 258.69L1420.19 236.69zM1420.19 258.69L1439.24 269.69L1439.24 291.69L1420.19 302.69L1401.14 291.69L1401.14 269.69zM1420.19 324.69L1439.24 335.69L1439.24 357.69L1420.19 368.69L1401.14 357.69L1401.14 335.69zM1439.24 489.69L1458.3 500.69L1458.3 522.69L1439.24 533.69L1420.19 522.69L1420.19 500.69z" stroke="rgba(171, 136, 105, 1)" stroke-width="2"></path><path d="M26.31 27.69 a3 3 0 1 0 6 0 a3 3 0 1 0 -6 0zM45.37 38.69 a3 3 0 1 0 6 0 a3 3 0 1 0 -6 0zM45.37 60.69 a3 3 0 1 0 6 0 a3 3 0 1 0 -6 0zM26.31 71.69 a3 3 0 1 0 6 0 a3 3 0 1 0 -6 0zM7.26 60.69 a3 3 0 1 0 6 0 a3 3 0 1 0 -6 0zM7.26 38.69 a3 3 0 1 0 6 0 a3 3 0 1 0 -6 0zM7.26 126.69 a3 3 0 1 0 6 0 a3 3 0 1 0 -6 0zM26.31 137.69 a3 3 0 1 0 6 0 a3 3 0 1 0 -6 0zM26.31 159.69 a3 3 0 1 0 6 0 a3 3 0 1 0 -6 0zM7.26 170.69 a3 3 0 1 0 6 0 a3 3 0 1 0 -6 0zM-11.79 159.69 a3 3 0 1 0 6 0 a3 3 0 1 0 -6 0zM-11.79 137.69 a3 3 0 1 0 6 0 a3 3 0 1 0 -6 0zM7.26 192.69 a3 3 0 1 0 6 0 a3 3 0 1 0 -6 0zM26.31 203.69 a3 3 0 1 0 6 0 a3 3 0 1 0 -6 0zM26.31 225.69 a3 3 0 1 0 6 0 a3 3 0 1 0 -6 0zM7.26 236.69 a3 3 0 1 0 6 0 a3 3 0 1 0 -6 0zM-11.79 225.69 a3 3 0 1 0 6 0 a3 3 0 1 0 -6 0zM-11.79 203.69 a3 3 0 1 0 6 0 a3 3 0 1 0 -6 0zM7.26 390.69 a3 3 0 1 0 6 0 a3 3 0 1 0 -6 0zM26.31 401.69 a3 3 0 1 0 6 0 a3 3 0 1 0 -6 0zM26.31 423.69 a3 3 0 1 0 6 0 a3 3 0 1 0 -6 0zM7.26 434.69 a3 3 0 1 0 6 0 a3 3 0 1 0 -6 0zM-11.79 423.69 a3 3 0 1 0 6 0 a3 3 0 1 0 -6 0zM-11.79 401.69 a3 3 0 1 0 6 0 a3 3 0 1 0 -6 0zM26.31 489.69 a3 3 0 1 0 6 0 a3 3 0 1 0 -6 0zM45.37 500.69 a3 3 0 1 0 6 0 a3 3 0 1 0 -6 0zM45.37 522.69 a3 3 0 1 0 6 0 a3 3 0 1 0 -6 0zM26.31 533.69 a3 3 0 1 0 6 0 a3 3 0 1 0 -6 0zM7.26 522.69 a3 3 0 1 0 6 0 a3 3 0 1 0 -6 0zM7.26 500.69 a3 3 0 1 0 6 0 a3 3 0 1 0 -6 0zM45.37 -5.31 a3 3 0 1 0 6 0 a3 3 0 1 0 -6 0zM64.42 5.69 a3 3 0 1 0 6 0 a3 3 0 1 0 -6 0zM64.42 27.69 a3 3 0 1 0 6 0 a3 3 0 1 0 -6 0zM26.31 5.69 a3 3 0 1 0 6 0 a3 3 0 1 0 -6 0zM64.42 159.69 a3 3 0 1 0 6 0 a3 3 0 1 0 -6 0zM83.47 170.69 a3 3 0 1 0 6 0 a3 3 0 1 0 -6 0zM83.47 192.69 a3 3 0 1 0 6 0 a3 3 0 1 0 -6 0zM64.42 203.69 a3 3 0 1 0 6 0 a3 3 0 1 0 -6 0zM45.37 192.69 a3 3 0 1 0 6 0 a3 3 0 1 0 -6 0zM45.37 170.69 a3 3 0 1 0 6 0 a3 3 0 1 0 -6 0zM64.42 291.69 a3 3 0 1 0 6 0 a3 3 0 1 0 -6 0zM83.47 302.69 a3 3 0 1 0 6 0 a3 3 0 1 0 -6 0zM83.47 324.69 a3 3 0 1 0 6 0 a3 3 0 1 0 -6 0zM64.42 335.69 a3 3 0 1 0 6 0 a3 3 0 1 0 -6 0zM45.37 324.69 a3 3 0 1 0 6 0 a3 3 0 1 0 -6 0zM45.37 302.69 a3 3 0 1 0 6 0 a3 3 0 1 0 -6 0zM64.42 489.69 a3 3 0 1 0 6 0 a3 3 0 1 0 -6 0zM83.47 500.69 a3 3 0 1 0 6 0 a3 3 0 1 0 -6 0zM83.47 522.69 a3 3 0 1 0 6 0 a3 3 0 1 0 -6 0zM64.42 533.69 a3 3 0 1 0 6 0 a3 3 0 1 0 -6 0zM83.47 60.69 a3 3 0 1 0 6 0 a3 3 0 1 0 -6 0zM102.53 71.69 a3 3 0 1 0 6 0 a3 3 0 1 0 -6 0zM102.53 93.69 a3 3 0 1 0 6 0 a3 3 0 1 0 -6 0zM83.47 104.69 a3 3 0 1 0 6 0 a3 3 0 1 0 -6 0zM64.42 93.69 a3 3 0 1 0 6 0 a3 3 0 1 0 -6 0zM64.42 71.69 a3 3 0 1 0 6 0 a3 3 0 1 0 -6 0zM102.53 203.69 a3 3 0 1 0 6 0 a3 3 0 1 0 -6 0zM102.53 225.69 a3 3 0 1 0 6 0 a3 3 0 1 0 -6 0zM83.47 236.69 a3 3 0 1 0 6 0 a3 3 0 1 0 -6 0zM64.42 225.69 a3 3 0 1 0 6 0 a3 3 0 1 0 -6 0zM121.58 236.69 a3 3 0 1 0 6 0 a3 3 0 1 0 -6 0zM121.58 258.69 a3 3 0 1 0 6 0 a3 3 0 1 0 -6 0zM102.53 269.69 a3 3 0 1 0 6 0 a3 3 0 1 0 -6 0zM83.47 258.69 a3 3 0 1 0 6 0 a3 3 0 1 0 -6 0zM102.53 423.69 a3 3 0 1 0 6 0 a3 3 0 1 0 -6 0zM121.58 434.69 a3 3 0 1 0 6 0 a3 3 0 1 0 -6 0zM121.58 456.69 a3 3 0 1 0 6 0 a3 3 0 1 0 -6 0zM102.53 467.69 a3 3 0 1 0 6 0 a3 3 0 1 0 -6 0zM83.47 456.69 a3 3 0 1 0 6 0 a3 3 0 1 0 -6 0zM83.47 434.69 a3 3 0 1 0 6 0 a3 3 0 1 0 -6 0zM121.58 -5.31 a3 3 0 1 0 6 0 a3 3 0 1 0 -6 0zM140.63 5.69 a3 3 0 1 0 6 0 a3 3 0 1 0 -6 0zM140.63 27.69 a3 3 0 1 0 6 0 a3 3 0 1 0 -6 0zM121.58 38.69 a3 3 0 1 0 6 0 a3 3 0 1 0 -6 0zM102.53 27.69 a3 3 0 1 0 6 0 a3 3 0 1 0 -6 0zM102.53 5.69 a3 3 0 1 0 6 0 a3 3 0 1 0 -6 0zM121.58 192.69 a3 3 0 1 0 6 0 a3 3 0 1 0 -6 0zM140.63 203.69 a3 3 0 1 0 6 0 a3 3 0 1 0 -6 0zM140.63 225.69 a3 3 0 1 0 6 0 a3 3 0 1 0 -6 0zM140.63 269.69 a3 3 0 1 0 6 0 a3 3 0 1 0 -6 0zM140.63 291.69 a3 3 0 1 0 6 0 a3 3 0 1 0 -6 0zM121.58 302.69 a3 3 0 1 0 6 0 a3 3 0 1 0 -6 0zM102.53 291.69 a3 3 0 1 0 6 0 a3 3 0 1 0 -6 0zM159.68 -5.31 a3 3 0 1 0 6 0 a3 3 0 1 0 -6 0zM178.74 5.69 a3 3 0 1 0 6 0 a3 3 0 1 0 -6 0zM178.74 27.69 a3 3 0 1 0 6 0 a3 3 0 1 0 -6 0zM159.68 38.69 a3 3 0 1 0 6 0 a3 3 0 1 0 -6 0zM159.68 126.69 a3 3 0 1 0 6 0 a3 3 0 1 0 -6 0zM178.74 137.69 a3 3 0 1 0 6 0 a3 3 0 1 0 -6 0zM178.74 159.69 a3 3 0 1 0 6 0 a3 3 0 1 0 -6 0zM159.68 170.69 a3 3 0 1 0 6 0 a3 3 0 1 0 -6 0zM140.63 159.69 a3 3 0 1 0 6 0 a3 3 0 1 0 -6 0zM140.63 137.69 a3 3 0 1 0 6 0 a3 3 0 1 0 -6 0zM159.68 192.69 a3 3 0 1 0 6 0 a3 3 0 1 0 -6 0zM178.74 203.69 a3 3 0 1 0 6 0 a3 3 0 1 0 -6 0zM178.74 225.69 a3 3 0 1 0 6 0 a3 3 0 1 0 -6 0zM159.68 236.69 a3 3 0 1 0 6 0 a3 3 0 1 0 -6 0zM178.74 423.69 a3 3 0 1 0 6 0 a3 3 0 1 0 -6 0zM197.79 434.69 a3 3 0 1 0 6 0 a3 3 0 1 0 -6 0zM197.79 456.69 a3 3 0 1 0 6 0 a3 3 0 1 0 -6 0zM178.74 467.69 a3 3 0 1 0 6 0 a3 3 0 1 0 -6 0zM159.68 456.69 a3 3 0 1 0 6 0 a3 3 0 1 0 -6 0zM159.68 434.69 a3 3 0 1 0 6 0 a3 3 0 1 0 -6 0zM197.79 -5.31 a3 3 0 1 0 6 0 a3 3 0 1 0 -6 0zM216.84 5.69 a3 3 0 1 0 6 0 a3 3 0 1 0 -6 0zM216.84 27.69 a3 3 0 1 0 6 0 a3 3 0 1 0 -6 0zM197.79 38.69 a3 3 0 1 0 6 0 a3 3 0 1 0 -6 0zM197.79 126.69 a3 3 0 1 0 6 0 a3 3 0 1 0 -6 0zM216.84 137.69 a3 3 0 1 0 6 0 a3 3 0 1 0 -6 0zM216.84 159.69 a3 3 0 1 0 6 0 a3 3 0 1 0 -6 0zM197.79 170.69 a3 3 0 1 0 6 0 a3 3 0 1 0 -6 0zM197.79 192.69 a3 3 0 1 0 6 0 a3 3 0 1 0 -6 0zM216.84 203.69 a3 3 0 1 0 6 0 a3 3 0 1 0 -6 0zM216.84 225.69 a3 3 0 1 0 6 0 a3 3 0 1 0 -6 0zM197.79 236.69 a3 3 0 1 0 6 0 a3 3 0 1 0 -6 0zM197.79 522.69 a3 3 0 1 0 6 0 a3 3 0 1 0 -6 0zM216.84 533.69 a3 3 0 1 0 6 0 a3 3 0 1 0 -6 0zM216.84 555.69 a3 3 0 1 0 6 0 a3 3 0 1 0 -6 0zM197.79 566.69 a3 3 0 1 0 6 0 a3 3 0 1 0 -6 0zM178.74 555.69 a3 3 0 1 0 6 0 a3 3 0 1 0 -6 0zM178.74 533.69 a3 3 0 1 0 6 0 a3 3 0 1 0 -6 0zM235.9 60.69 a3 3 0 1 0 6 0 a3 3 0 1 0 -6 0zM254.95 71.69 a3 3 0 1 0 6 0 a3 3 0 1 0 -6 0zM254.95 93.69 a3 3 0 1 0 6 0 a3 3 0 1 0 -6 0zM235.9 104.69 a3 3 0 1 0 6 0 a3 3 0 1 0 -6 0zM216.84 93.69 a3 3 0 1 0 6 0 a3 3 0 1 0 -6 0zM216.84 71.69 a3 3 0 1 0 6 0 a3 3 0 1 0 -6 0zM235.9 192.69 a3 3 0 1 0 6 0 a3 3 0 1 0 -6 0zM254.95 203.69 a3 3 0 1 0 6 0 a3 3 0 1 0 -6 0zM254.95 225.69 a3 3 0 1 0 6 0 a3 3 0 1 0 -6 0zM235.9 236.69 a3 3 0 1 0 6 0 a3 3 0 1 0 -6 0zM274 236.69 a3 3 0 1 0 6 0 a3 3 0 1 0 -6 0zM274 258.69 a3 3 0 1 0 6 0 a3 3 0 1 0 -6 0zM254.95 269.69 a3 3 0 1 0 6 0 a3 3 0 1 0 -6 0zM235.9 258.69 a3 3 0 1 0 6 0 a3 3 0 1 0 -6 0zM254.95 291.69 a3 3 0 1 0 6 0 a3 3 0 1 0 -6 0zM235.9 302.69 a3 3 0 1 0 6 0 a3 3 0 1 0 -6 0zM216.84 291.69 a3 3 0 1 0 6 0 a3 3 0 1 0 -6 0zM216.84 269.69 a3 3 0 1 0 6 0 a3 3 0 1 0 -6 0zM254.95 357.69 a3 3 0 1 0 6 0 a3 3 0 1 0 -6 0zM274 368.69 a3 3 0 1 0 6 0 a3 3 0 1 0 -6 0zM274 390.69 a3 3 0 1 0 6 0 a3 3 0 1 0 -6 0zM254.95 401.69 a3 3 0 1 0 6 0 a3 3 0 1 0 -6 0zM235.9 390.69 a3 3 0 1 0 6 0 a3 3 0 1 0 -6 0zM235.9 368.69 a3 3 0 1 0 6 0 a3 3 0 1 0 -6 0zM274 126.69 a3 3 0 1 0 6 0 a3 3 0 1 0 -6 0zM293.06 137.69 a3 3 0 1 0 6 0 a3 3 0 1 0 -6 0zM293.06 159.69 a3 3 0 1 0 6 0 a3 3 0 1 0 -6 0zM274 170.69 a3 3 0 1 0 6 0 a3 3 0 1 0 -6 0zM254.95 159.69 a3 3 0 1 0 6 0 a3 3 0 1 0 -6 0zM254.95 137.69 a3 3 0 1 0 6 0 a3 3 0 1 0 -6 0zM274 192.69 a3 3 0 1 0 6 0 a3 3 0 1 0 -6 0zM293.06 203.69 a3 3 0 1 0 6 0 a3 3 0 1 0 -6 0zM293.06 225.69 a3 3 0 1 0 6 0 a3 3 0 1 0 -6 0zM293.06 489.69 a3 3 0 1 0 6 0 a3 3 0 1 0 -6 0zM312.11 500.69 a3 3 0 1 0 6 0 a3 3 0 1 0 -6 0zM312.11 522.69 a3 3 0 1 0 6 0 a3 3 0 1 0 -6 0zM293.06 533.69 a3 3 0 1 0 6 0 a3 3 0 1 0 -6 0zM274 522.69 a3 3 0 1 0 6 0 a3 3 0 1 0 -6 0zM274 500.69 a3 3 0 1 0 6 0 a3 3 0 1 0 -6 0zM293.06 555.69 a3 3 0 1 0 6 0 a3 3 0 1 0 -6 0zM312.11 566.69 a3 3 0 1 0 6 0 a3 3 0 1 0 -6 0zM312.11 588.69 a3 3 0 1 0 6 0 a3 3 0 1 0 -6 0zM293.06 599.69 a3 3 0 1 0 6 0 a3 3 0 1 0 -6 0zM274 588.69 a3 3 0 1 0 6 0 a3 3 0 1 0 -6 0zM274 566.69 a3 3 0 1 0 6 0 a3 3 0 1 0 -6 0zM312.11 126.69 a3 3 0 1 0 6 0 a3 3 0 1 0 -6 0zM331.16 137.69 a3 3 0 1 0 6 0 a3 3 0 1 0 -6 0zM331.16 159.69 a3 3 0 1 0 6 0 a3 3 0 1 0 -6 0zM312.11 170.69 a3 3 0 1 0 6 0 a3 3 0 1 0 -6 0zM331.16 357.69 a3 3 0 1 0 6 0 a3 3 0 1 0 -6 0zM350.22 368.69 a3 3 0 1 0 6 0 a3 3 0 1 0 -6 0zM350.22 390.69 a3 3 0 1 0 6 0 a3 3 0 1 0 -6 0zM331.16 401.69 a3 3 0 1 0 6 0 a3 3 0 1 0 -6 0zM312.11 390.69 a3 3 0 1 0 6 0 a3 3 0 1 0 -6 0zM312.11 368.69 a3 3 0 1 0 6 0 a3 3 0 1 0 -6 0zM331.16 423.69 a3 3 0 1 0 6 0 a3 3 0 1 0 -6 0zM350.22 434.69 a3 3 0 1 0 6 0 a3 3 0 1 0 -6 0zM350.22 456.69 a3 3 0 1 0 6 0 a3 3 0 1 0 -6 0zM331.16 467.69 a3 3 0 1 0 6 0 a3 3 0 1 0 -6 0zM312.11 456.69 a3 3 0 1 0 6 0 a3 3 0 1 0 -6 0zM312.11 434.69 a3 3 0 1 0 6 0 a3 3 0 1 0 -6 0zM331.16 489.69 a3 3 0 1 0 6 0 a3 3 0 1 0 -6 0zM350.22 500.69 a3 3 0 1 0 6 0 a3 3 0 1 0 -6 0zM350.22 522.69 a3 3 0 1 0 6 0 a3 3 0 1 0 -6 0zM331.16 533.69 a3 3 0 1 0 6 0 a3 3 0 1 0 -6 0zM369.27 93.69 a3 3 0 1 0 6 0 a3 3 0 1 0 -6 0zM388.32 104.69 a3 3 0 1 0 6 0 a3 3 0 1 0 -6 0zM388.32 126.69 a3 3 0 1 0 6 0 a3 3 0 1 0 -6 0zM369.27 137.69 a3 3 0 1 0 6 0 a3 3 0 1 0 -6 0zM350.22 126.69 a3 3 0 1 0 6 0 a3 3 0 1 0 -6 0zM350.22 104.69 a3 3 0 1 0 6 0 a3 3 0 1 0 -6 0zM369.27 159.69 a3 3 0 1 0 6 0 a3 3 0 1 0 -6 0zM388.32 170.69 a3 3 0 1 0 6 0 a3 3 0 1 0 -6 0zM388.32 192.69 a3 3 0 1 0 6 0 a3 3 0 1 0 -6 0zM369.27 203.69 a3 3 0 1 0 6 0 a3 3 0 1 0 -6 0zM350.22 192.69 a3 3 0 1 0 6 0 a3 3 0 1 0 -6 0zM350.22 170.69 a3 3 0 1 0 6 0 a3 3 0 1 0 -6 0zM369.27 225.69 a3 3 0 1 0 6 0 a3 3 0 1 0 -6 0zM388.32 236.69 a3 3 0 1 0 6 0 a3 3 0 1 0 -6 0zM388.32 258.69 a3 3 0 1 0 6 0 a3 3 0 1 0 -6 0zM369.27 269.69 a3 3 0 1 0 6 0 a3 3 0 1 0 -6 0zM350.22 258.69 a3 3 0 1 0 6 0 a3 3 0 1 0 -6 0zM350.22 236.69 a3 3 0 1 0 6 0 a3 3 0 1 0 -6 0zM369.27 467.69 a3 3 0 1 0 6 0 a3 3 0 1 0 -6 0zM369.27 489.69 a3 3 0 1 0 6 0 a3 3 0 1 0 -6 0zM369.27 533.69 a3 3 0 1 0 6 0 a3 3 0 1 0 -6 0zM369.27 555.69 a3 3 0 1 0 6 0 a3 3 0 1 0 -6 0zM350.22 566.69 a3 3 0 1 0 6 0 a3 3 0 1 0 -6 0zM331.16 555.69 a3 3 0 1 0 6 0 a3 3 0 1 0 -6 0zM388.32 -5.31 a3 3 0 1 0 6 0 a3 3 0 1 0 -6 0zM407.38 5.69 a3 3 0 1 0 6 0 a3 3 0 1 0 -6 0zM407.38 27.69 a3 3 0 1 0 6 0 a3 3 0 1 0 -6 0zM388.32 38.69 a3 3 0 1 0 6 0 a3 3 0 1 0 -6 0zM369.27 27.69 a3 3 0 1 0 6 0 a3 3 0 1 0 -6 0zM369.27 5.69 a3 3 0 1 0 6 0 a3 3 0 1 0 -6 0zM426.43 38.69 a3 3 0 1 0 6 0 a3 3 0 1 0 -6 0zM426.43 60.69 a3 3 0 1 0 6 0 a3 3 0 1 0 -6 0zM407.38 71.69 a3 3 0 1 0 6 0 a3 3 0 1 0 -6 0zM388.32 60.69 a3 3 0 1 0 6 0 a3 3 0 1 0 -6 0zM407.38 93.69 a3 3 0 1 0 6 0 a3 3 0 1 0 -6 0zM369.27 71.69 a3 3 0 1 0 6 0 a3 3 0 1 0 -6 0zM407.38 423.69 a3 3 0 1 0 6 0 a3 3 0 1 0 -6 0zM426.43 434.69 a3 3 0 1 0 6 0 a3 3 0 1 0 -6 0zM426.43 456.69 a3 3 0 1 0 6 0 a3 3 0 1 0 -6 0zM407.38 467.69 a3 3 0 1 0 6 0 a3 3 0 1 0 -6 0zM388.32 456.69 a3 3 0 1 0 6 0 a3 3 0 1 0 -6 0zM388.32 434.69 a3 3 0 1 0 6 0 a3 3 0 1 0 -6 0zM426.43 -5.31 a3 3 0 1 0 6 0 a3 3 0 1 0 -6 0zM445.48 5.69 a3 3 0 1 0 6 0 a3 3 0 1 0 -6 0zM445.48 27.69 a3 3 0 1 0 6 0 a3 3 0 1 0 -6 0zM445.48 93.69 a3 3 0 1 0 6 0 a3 3 0 1 0 -6 0zM464.53 104.69 a3 3 0 1 0 6 0 a3 3 0 1 0 -6 0zM464.53 126.69 a3 3 0 1 0 6 0 a3 3 0 1 0 -6 0zM445.48 137.69 a3 3 0 1 0 6 0 a3 3 0 1 0 -6 0zM426.43 126.69 a3 3 0 1 0 6 0 a3 3 0 1 0 -6 0zM426.43 104.69 a3 3 0 1 0 6 0 a3 3 0 1 0 -6 0zM445.48 159.69 a3 3 0 1 0 6 0 a3 3 0 1 0 -6 0zM426.43 170.69 a3 3 0 1 0 6 0 a3 3 0 1 0 -6 0zM407.38 159.69 a3 3 0 1 0 6 0 a3 3 0 1 0 -6 0zM407.38 137.69 a3 3 0 1 0 6 0 a3 3 0 1 0 -6 0zM464.53 170.69 a3 3 0 1 0 6 0 a3 3 0 1 0 -6 0zM464.53 192.69 a3 3 0 1 0 6 0 a3 3 0 1 0 -6 0zM445.48 203.69 a3 3 0 1 0 6 0 a3 3 0 1 0 -6 0zM426.43 192.69 a3 3 0 1 0 6 0 a3 3 0 1 0 -6 0zM445.48 225.69 a3 3 0 1 0 6 0 a3 3 0 1 0 -6 0zM464.53 236.69 a3 3 0 1 0 6 0 a3 3 0 1 0 -6 0zM464.53 258.69 a3 3 0 1 0 6 0 a3 3 0 1 0 -6 0zM445.48 269.69 a3 3 0 1 0 6 0 a3 3 0 1 0 -6 0zM426.43 258.69 a3 3 0 1 0 6 0 a3 3 0 1 0 -6 0zM426.43 236.69 a3 3 0 1 0 6 0 a3 3 0 1 0 -6 0zM426.43 324.69 a3 3 0 1 0 6 0 a3 3 0 1 0 -6 0zM445.48 335.69 a3 3 0 1 0 6 0 a3 3 0 1 0 -6 0zM445.48 357.69 a3 3 0 1 0 6 0 a3 3 0 1 0 -6 0zM426.43 368.69 a3 3 0 1 0 6 0 a3 3 0 1 0 -6 0zM407.38 357.69 a3 3 0 1 0 6 0 a3 3 0 1 0 -6 0zM407.38 335.69 a3 3 0 1 0 6 0 a3 3 0 1 0 -6 0zM426.43 390.69 a3 3 0 1 0 6 0 a3 3 0 1 0 -6 0zM445.48 401.69 a3 3 0 1 0 6 0 a3 3 0 1 0 -6 0zM445.48 423.69 a3 3 0 1 0 6 0 a3 3 0 1 0 -6 0zM407.38 401.69 a3 3 0 1 0 6 0 a3 3 0 1 0 -6 0zM464.53 434.69 a3 3 0 1 0 6 0 a3 3 0 1 0 -6 0zM464.53 456.69 a3 3 0 1 0 6 0 a3 3 0 1 0 -6 0zM445.48 467.69 a3 3 0 1 0 6 0 a3 3 0 1 0 -6 0zM445.48 489.69 a3 3 0 1 0 6 0 a3 3 0 1 0 -6 0zM426.43 500.69 a3 3 0 1 0 6 0 a3 3 0 1 0 -6 0zM407.38 489.69 a3 3 0 1 0 6 0 a3 3 0 1 0 -6 0zM464.53 500.69 a3 3 0 1 0 6 0 a3 3 0 1 0 -6 0zM464.53 522.69 a3 3 0 1 0 6 0 a3 3 0 1 0 -6 0zM445.48 533.69 a3 3 0 1 0 6 0 a3 3 0 1 0 -6 0zM426.43 522.69 a3 3 0 1 0 6 0 a3 3 0 1 0 -6 0zM483.59 27.69 a3 3 0 1 0 6 0 a3 3 0 1 0 -6 0zM502.64 38.69 a3 3 0 1 0 6 0 a3 3 0 1 0 -6 0zM502.64 60.69 a3 3 0 1 0 6 0 a3 3 0 1 0 -6 0zM483.59 71.69 a3 3 0 1 0 6 0 a3 3 0 1 0 -6 0zM464.53 60.69 a3 3 0 1 0 6 0 a3 3 0 1 0 -6 0zM464.53 38.69 a3 3 0 1 0 6 0 a3 3 0 1 0 -6 0zM483.59 93.69 a3 3 0 1 0 6 0 a3 3 0 1 0 -6 0zM502.64 104.69 a3 3 0 1 0 6 0 a3 3 0 1 0 -6 0zM502.64 126.69 a3 3 0 1 0 6 0 a3 3 0 1 0 -6 0zM483.59 137.69 a3 3 0 1 0 6 0 a3 3 0 1 0 -6 0zM483.59 203.69 a3 3 0 1 0 6 0 a3 3 0 1 0 -6 0zM483.59 225.69 a3 3 0 1 0 6 0 a3 3 0 1 0 -6 0zM502.64 236.69 a3 3 0 1 0 6 0 a3 3 0 1 0 -6 0zM502.64 258.69 a3 3 0 1 0 6 0 a3 3 0 1 0 -6 0zM483.59 269.69 a3 3 0 1 0 6 0 a3 3 0 1 0 -6 0zM483.59 291.69 a3 3 0 1 0 6 0 a3 3 0 1 0 -6 0zM464.53 302.69 a3 3 0 1 0 6 0 a3 3 0 1 0 -6 0zM445.48 291.69 a3 3 0 1 0 6 0 a3 3 0 1 0 -6 0zM464.53 324.69 a3 3 0 1 0 6 0 a3 3 0 1 0 -6 0zM483.59 335.69 a3 3 0 1 0 6 0 a3 3 0 1 0 -6 0zM483.59 357.69 a3 3 0 1 0 6 0 a3 3 0 1 0 -6 0zM464.53 368.69 a3 3 0 1 0 6 0 a3 3 0 1 0 -6 0zM464.53 390.69 a3 3 0 1 0 6 0 a3 3 0 1 0 -6 0zM483.59 401.69 a3 3 0 1 0 6 0 a3 3 0 1 0 -6 0zM483.59 423.69 a3 3 0 1 0 6 0 a3 3 0 1 0 -6 0zM483.59 555.69 a3 3 0 1 0 6 0 a3 3 0 1 0 -6 0zM502.64 566.69 a3 3 0 1 0 6 0 a3 3 0 1 0 -6 0zM502.64 588.69 a3 3 0 1 0 6 0 a3 3 0 1 0 -6 0zM483.59 599.69 a3 3 0 1 0 6 0 a3 3 0 1 0 -6 0zM464.53 588.69 a3 3 0 1 0 6 0 a3 3 0 1 0 -6 0zM464.53 566.69 a3 3 0 1 0 6 0 a3 3 0 1 0 -6 0zM521.69 27.69 a3 3 0 1 0 6 0 a3 3 0 1 0 -6 0zM540.75 38.69 a3 3 0 1 0 6 0 a3 3 0 1 0 -6 0zM540.75 60.69 a3 3 0 1 0 6 0 a3 3 0 1 0 -6 0zM521.69 71.69 a3 3 0 1 0 6 0 a3 3 0 1 0 -6 0zM521.69 93.69 a3 3 0 1 0 6 0 a3 3 0 1 0 -6 0zM521.69 137.69 a3 3 0 1 0 6 0 a3 3 0 1 0 -6 0zM521.69 159.69 a3 3 0 1 0 6 0 a3 3 0 1 0 -6 0zM502.64 170.69 a3 3 0 1 0 6 0 a3 3 0 1 0 -6 0zM483.59 159.69 a3 3 0 1 0 6 0 a3 3 0 1 0 -6 0zM521.69 225.69 a3 3 0 1 0 6 0 a3 3 0 1 0 -6 0zM540.75 236.69 a3 3 0 1 0 6 0 a3 3 0 1 0 -6 0zM540.75 258.69 a3 3 0 1 0 6 0 a3 3 0 1 0 -6 0zM521.69 269.69 a3 3 0 1 0 6 0 a3 3 0 1 0 -6 0zM502.64 522.69 a3 3 0 1 0 6 0 a3 3 0 1 0 -6 0zM521.69 533.69 a3 3 0 1 0 6 0 a3 3 0 1 0 -6 0zM521.69 555.69 a3 3 0 1 0 6 0 a3 3 0 1 0 -6 0zM483.59 533.69 a3 3 0 1 0 6 0 a3 3 0 1 0 -6 0zM559.8 159.69 a3 3 0 1 0 6 0 a3 3 0 1 0 -6 0zM578.85 170.69 a3 3 0 1 0 6 0 a3 3 0 1 0 -6 0zM578.85 192.69 a3 3 0 1 0 6 0 a3 3 0 1 0 -6 0zM559.8 203.69 a3 3 0 1 0 6 0 a3 3 0 1 0 -6 0zM540.75 192.69 a3 3 0 1 0 6 0 a3 3 0 1 0 -6 0zM540.75 170.69 a3 3 0 1 0 6 0 a3 3 0 1 0 -6 0zM559.8 269.69 a3 3 0 1 0 6 0 a3 3 0 1 0 -6 0zM559.8 291.69 a3 3 0 1 0 6 0 a3 3 0 1 0 -6 0zM540.75 302.69 a3 3 0 1 0 6 0 a3 3 0 1 0 -6 0zM521.69 291.69 a3 3 0 1 0 6 0 a3 3 0 1 0 -6 0zM578.85 302.69 a3 3 0 1 0 6 0 a3 3 0 1 0 -6 0zM578.85 324.69 a3 3 0 1 0 6 0 a3 3 0 1 0 -6 0zM559.8 335.69 a3 3 0 1 0 6 0 a3 3 0 1 0 -6 0zM540.75 324.69 a3 3 0 1 0 6 0 a3 3 0 1 0 -6 0zM559.8 357.69 a3 3 0 1 0 6 0 a3 3 0 1 0 -6 0zM540.75 368.69 a3 3 0 1 0 6 0 a3 3 0 1 0 -6 0zM521.69 357.69 a3 3 0 1 0 6 0 a3 3 0 1 0 -6 0zM521.69 335.69 a3 3 0 1 0 6 0 a3 3 0 1 0 -6 0zM578.85 368.69 a3 3 0 1 0 6 0 a3 3 0 1 0 -6 0zM578.85 390.69 a3 3 0 1 0 6 0 a3 3 0 1 0 -6 0zM559.8 401.69 a3 3 0 1 0 6 0 a3 3 0 1 0 -6 0zM540.75 390.69 a3 3 0 1 0 6 0 a3 3 0 1 0 -6 0zM559.8 489.69 a3 3 0 1 0 6 0 a3 3 0 1 0 -6 0zM578.85 500.69 a3 3 0 1 0 6 0 a3 3 0 1 0 -6 0zM578.85 522.69 a3 3 0 1 0 6 0 a3 3 0 1 0 -6 0zM559.8 533.69 a3 3 0 1 0 6 0 a3 3 0 1 0 -6 0zM540.75 522.69 a3 3 0 1 0 6 0 a3 3 0 1 0 -6 0zM540.75 500.69 a3 3 0 1 0 6 0 a3 3 0 1 0 -6 0zM559.8 555.69 a3 3 0 1 0 6 0 a3 3 0 1 0 -6 0zM578.85 566.69 a3 3 0 1 0 6 0 a3 3 0 1 0 -6 0zM578.85 588.69 a3 3 0 1 0 6 0 a3 3 0 1 0 -6 0zM559.8 599.69 a3 3 0 1 0 6 0 a3 3 0 1 0 -6 0zM540.75 588.69 a3 3 0 1 0 6 0 a3 3 0 1 0 -6 0zM540.75 566.69 a3 3 0 1 0 6 0 a3 3 0 1 0 -6 0zM578.85 -5.31 a3 3 0 1 0 6 0 a3 3 0 1 0 -6 0zM597.91 5.69 a3 3 0 1 0 6 0 a3 3 0 1 0 -6 0zM597.91 27.69 a3 3 0 1 0 6 0 a3 3 0 1 0 -6 0zM578.85 38.69 a3 3 0 1 0 6 0 a3 3 0 1 0 -6 0zM559.8 27.69 a3 3 0 1 0 6 0 a3 3 0 1 0 -6 0zM559.8 5.69 a3 3 0 1 0 6 0 a3 3 0 1 0 -6 0zM578.85 60.69 a3 3 0 1 0 6 0 a3 3 0 1 0 -6 0zM597.91 71.69 a3 3 0 1 0 6 0 a3 3 0 1 0 -6 0zM597.91 93.69 a3 3 0 1 0 6 0 a3 3 0 1 0 -6 0zM578.85 104.69 a3 3 0 1 0 6 0 a3 3 0 1 0 -6 0zM559.8 93.69 a3 3 0 1 0 6 0 a3 3 0 1 0 -6 0zM559.8 71.69 a3 3 0 1 0 6 0 a3 3 0 1 0 -6 0zM616.96 104.69 a3 3 0 1 0 6 0 a3 3 0 1 0 -6 0zM616.96 126.69 a3 3 0 1 0 6 0 a3 3 0 1 0 -6 0zM597.91 137.69 a3 3 0 1 0 6 0 a3 3 0 1 0 -6 0zM578.85 126.69 a3 3 0 1 0 6 0 a3 3 0 1 0 -6 0zM597.91 203.69 a3 3 0 1 0 6 0 a3 3 0 1 0 -6 0zM597.91 225.69 a3 3 0 1 0 6 0 a3 3 0 1 0 -6 0zM578.85 236.69 a3 3 0 1 0 6 0 a3 3 0 1 0 -6 0zM559.8 225.69 a3 3 0 1 0 6 0 a3 3 0 1 0 -6 0zM616.96 236.69 a3 3 0 1 0 6 0 a3 3 0 1 0 -6 0zM616.96 258.69 a3 3 0 1 0 6 0 a3 3 0 1 0 -6 0zM597.91 269.69 a3 3 0 1 0 6 0 a3 3 0 1 0 -6 0zM578.85 258.69 a3 3 0 1 0 6 0 a3 3 0 1 0 -6 0zM578.85 456.69 a3 3 0 1 0 6 0 a3 3 0 1 0 -6 0zM597.91 467.69 a3 3 0 1 0 6 0 a3 3 0 1 0 -6 0zM597.91 489.69 a3 3 0 1 0 6 0 a3 3 0 1 0 -6 0zM559.8 467.69 a3 3 0 1 0 6 0 a3 3 0 1 0 -6 0zM597.91 533.69 a3 3 0 1 0 6 0 a3 3 0 1 0 -6 0zM597.91 555.69 a3 3 0 1 0 6 0 a3 3 0 1 0 -6 0zM616.96 566.69 a3 3 0 1 0 6 0 a3 3 0 1 0 -6 0zM616.96 588.69 a3 3 0 1 0 6 0 a3 3 0 1 0 -6 0zM597.91 599.69 a3 3 0 1 0 6 0 a3 3 0 1 0 -6 0zM636.01 27.69 a3 3 0 1 0 6 0 a3 3 0 1 0 -6 0zM655.07 38.69 a3 3 0 1 0 6 0 a3 3 0 1 0 -6 0zM655.07 60.69 a3 3 0 1 0 6 0 a3 3 0 1 0 -6 0zM636.01 71.69 a3 3 0 1 0 6 0 a3 3 0 1 0 -6 0zM616.96 60.69 a3 3 0 1 0 6 0 a3 3 0 1 0 -6 0zM616.96 38.69 a3 3 0 1 0 6 0 a3 3 0 1 0 -6 0zM636.01 93.69 a3 3 0 1 0 6 0 a3 3 0 1 0 -6 0zM636.01 159.69 a3 3 0 1 0 6 0 a3 3 0 1 0 -6 0zM655.07 170.69 a3 3 0 1 0 6 0 a3 3 0 1 0 -6 0zM655.07 192.69 a3 3 0 1 0 6 0 a3 3 0 1 0 -6 0zM636.01 203.69 a3 3 0 1 0 6 0 a3 3 0 1 0 -6 0zM616.96 192.69 a3 3 0 1 0 6 0 a3 3 0 1 0 -6 0zM616.96 170.69 a3 3 0 1 0 6 0 a3 3 0 1 0 -6 0zM616.96 390.69 a3 3 0 1 0 6 0 a3 3 0 1 0 -6 0zM636.01 401.69 a3 3 0 1 0 6 0 a3 3 0 1 0 -6 0zM636.01 423.69 a3 3 0 1 0 6 0 a3 3 0 1 0 -6 0zM616.96 434.69 a3 3 0 1 0 6 0 a3 3 0 1 0 -6 0zM597.91 423.69 a3 3 0 1 0 6 0 a3 3 0 1 0 -6 0zM597.91 401.69 a3 3 0 1 0 6 0 a3 3 0 1 0 -6 0zM655.07 434.69 a3 3 0 1 0 6 0 a3 3 0 1 0 -6 0zM655.07 456.69 a3 3 0 1 0 6 0 a3 3 0 1 0 -6 0zM636.01 467.69 a3 3 0 1 0 6 0 a3 3 0 1 0 -6 0zM616.96 456.69 a3 3 0 1 0 6 0 a3 3 0 1 0 -6 0zM636.01 489.69 a3 3 0 1 0 6 0 a3 3 0 1 0 -6 0zM616.96 500.69 a3 3 0 1 0 6 0 a3 3 0 1 0 -6 0zM655.07 -5.31 a3 3 0 1 0 6 0 a3 3 0 1 0 -6 0zM674.12 5.69 a3 3 0 1 0 6 0 a3 3 0 1 0 -6 0zM674.12 27.69 a3 3 0 1 0 6 0 a3 3 0 1 0 -6 0zM636.01 5.69 a3 3 0 1 0 6 0 a3 3 0 1 0 -6 0zM674.12 93.69 a3 3 0 1 0 6 0 a3 3 0 1 0 -6 0zM693.17 104.69 a3 3 0 1 0 6 0 a3 3 0 1 0 -6 0zM693.17 126.69 a3 3 0 1 0 6 0 a3 3 0 1 0 -6 0zM674.12 137.69 a3 3 0 1 0 6 0 a3 3 0 1 0 -6 0zM655.07 126.69 a3 3 0 1 0 6 0 a3 3 0 1 0 -6 0zM655.07 104.69 a3 3 0 1 0 6 0 a3 3 0 1 0 -6 0zM674.12 203.69 a3 3 0 1 0 6 0 a3 3 0 1 0 -6 0zM674.12 225.69 a3 3 0 1 0 6 0 a3 3 0 1 0 -6 0zM655.07 236.69 a3 3 0 1 0 6 0 a3 3 0 1 0 -6 0zM636.01 225.69 a3 3 0 1 0 6 0 a3 3 0 1 0 -6 0zM693.17 236.69 a3 3 0 1 0 6 0 a3 3 0 1 0 -6 0zM693.17 258.69 a3 3 0 1 0 6 0 a3 3 0 1 0 -6 0zM674.12 269.69 a3 3 0 1 0 6 0 a3 3 0 1 0 -6 0zM655.07 258.69 a3 3 0 1 0 6 0 a3 3 0 1 0 -6 0zM674.12 291.69 a3 3 0 1 0 6 0 a3 3 0 1 0 -6 0zM655.07 302.69 a3 3 0 1 0 6 0 a3 3 0 1 0 -6 0zM636.01 291.69 a3 3 0 1 0 6 0 a3 3 0 1 0 -6 0zM636.01 269.69 a3 3 0 1 0 6 0 a3 3 0 1 0 -6 0zM655.07 324.69 a3 3 0 1 0 6 0 a3 3 0 1 0 -6 0zM674.12 335.69 a3 3 0 1 0 6 0 a3 3 0 1 0 -6 0zM674.12 357.69 a3 3 0 1 0 6 0 a3 3 0 1 0 -6 0zM655.07 368.69 a3 3 0 1 0 6 0 a3 3 0 1 0 -6 0zM636.01 357.69 a3 3 0 1 0 6 0 a3 3 0 1 0 -6 0zM636.01 335.69 a3 3 0 1 0 6 0 a3 3 0 1 0 -6 0zM674.12 467.69 a3 3 0 1 0 6 0 a3 3 0 1 0 -6 0zM674.12 489.69 a3 3 0 1 0 6 0 a3 3 0 1 0 -6 0zM655.07 500.69 a3 3 0 1 0 6 0 a3 3 0 1 0 -6 0zM693.17 192.69 a3 3 0 1 0 6 0 a3 3 0 1 0 -6 0zM712.22 203.69 a3 3 0 1 0 6 0 a3 3 0 1 0 -6 0zM712.22 225.69 a3 3 0 1 0 6 0 a3 3 0 1 0 -6 0zM731.28 236.69 a3 3 0 1 0 6 0 a3 3 0 1 0 -6 0zM731.28 258.69 a3 3 0 1 0 6 0 a3 3 0 1 0 -6 0zM712.22 269.69 a3 3 0 1 0 6 0 a3 3 0 1 0 -6 0zM712.22 291.69 a3 3 0 1 0 6 0 a3 3 0 1 0 -6 0zM693.17 302.69 a3 3 0 1 0 6 0 a3 3 0 1 0 -6 0zM712.22 357.69 a3 3 0 1 0 6 0 a3 3 0 1 0 -6 0zM731.28 368.69 a3 3 0 1 0 6 0 a3 3 0 1 0 -6 0zM731.28 390.69 a3 3 0 1 0 6 0 a3 3 0 1 0 -6 0zM712.22 401.69 a3 3 0 1 0 6 0 a3 3 0 1 0 -6 0zM693.17 390.69 a3 3 0 1 0 6 0 a3 3 0 1 0 -6 0zM693.17 368.69 a3 3 0 1 0 6 0 a3 3 0 1 0 -6 0zM693.17 456.69 a3 3 0 1 0 6 0 a3 3 0 1 0 -6 0zM712.22 467.69 a3 3 0 1 0 6 0 a3 3 0 1 0 -6 0zM712.22 489.69 a3 3 0 1 0 6 0 a3 3 0 1 0 -6 0zM693.17 500.69 a3 3 0 1 0 6 0 a3 3 0 1 0 -6 0zM731.28 500.69 a3 3 0 1 0 6 0 a3 3 0 1 0 -6 0zM731.28 522.69 a3 3 0 1 0 6 0 a3 3 0 1 0 -6 0zM712.22 533.69 a3 3 0 1 0 6 0 a3 3 0 1 0 -6 0zM693.17 522.69 a3 3 0 1 0 6 0 a3 3 0 1 0 -6 0zM712.22 555.69 a3 3 0 1 0 6 0 a3 3 0 1 0 -6 0zM693.17 566.69 a3 3 0 1 0 6 0 a3 3 0 1 0 -6 0zM674.12 555.69 a3 3 0 1 0 6 0 a3 3 0 1 0 -6 0zM674.12 533.69 a3 3 0 1 0 6 0 a3 3 0 1 0 -6 0zM731.28 60.69 a3 3 0 1 0 6 0 a3 3 0 1 0 -6 0zM750.33 71.69 a3 3 0 1 0 6 0 a3 3 0 1 0 -6 0zM750.33 93.69 a3 3 0 1 0 6 0 a3 3 0 1 0 -6 0zM731.28 104.69 a3 3 0 1 0 6 0 a3 3 0 1 0 -6 0zM712.22 93.69 a3 3 0 1 0 6 0 a3 3 0 1 0 -6 0zM712.22 71.69 a3 3 0 1 0 6 0 a3 3 0 1 0 -6 0zM769.38 104.69 a3 3 0 1 0 6 0 a3 3 0 1 0 -6 0zM769.38 126.69 a3 3 0 1 0 6 0 a3 3 0 1 0 -6 0zM750.33 137.69 a3 3 0 1 0 6 0 a3 3 0 1 0 -6 0zM731.28 126.69 a3 3 0 1 0 6 0 a3 3 0 1 0 -6 0zM750.33 225.69 a3 3 0 1 0 6 0 a3 3 0 1 0 -6 0zM769.38 236.69 a3 3 0 1 0 6 0 a3 3 0 1 0 -6 0zM769.38 258.69 a3 3 0 1 0 6 0 a3 3 0 1 0 -6 0zM750.33 269.69 a3 3 0 1 0 6 0 a3 3 0 1 0 -6 0zM750.33 291.69 a3 3 0 1 0 6 0 a3 3 0 1 0 -6 0zM731.28 302.69 a3 3 0 1 0 6 0 a3 3 0 1 0 -6 0zM750.33 357.69 a3 3 0 1 0 6 0 a3 3 0 1 0 -6 0zM769.38 368.69 a3 3 0 1 0 6 0 a3 3 0 1 0 -6 0zM769.38 390.69 a3 3 0 1 0 6 0 a3 3 0 1 0 -6 0zM750.33 401.69 a3 3 0 1 0 6 0 a3 3 0 1 0 -6 0zM750.33 555.69 a3 3 0 1 0 6 0 a3 3 0 1 0 -6 0zM769.38 566.69 a3 3 0 1 0 6 0 a3 3 0 1 0 -6 0zM769.38 588.69 a3 3 0 1 0 6 0 a3 3 0 1 0 -6 0zM750.33 599.69 a3 3 0 1 0 6 0 a3 3 0 1 0 -6 0zM731.28 588.69 a3 3 0 1 0 6 0 a3 3 0 1 0 -6 0zM731.28 566.69 a3 3 0 1 0 6 0 a3 3 0 1 0 -6 0zM788.44 291.69 a3 3 0 1 0 6 0 a3 3 0 1 0 -6 0zM807.49 302.69 a3 3 0 1 0 6 0 a3 3 0 1 0 -6 0zM807.49 324.69 a3 3 0 1 0 6 0 a3 3 0 1 0 -6 0zM788.44 335.69 a3 3 0 1 0 6 0 a3 3 0 1 0 -6 0zM769.38 324.69 a3 3 0 1 0 6 0 a3 3 0 1 0 -6 0zM769.38 302.69 a3 3 0 1 0 6 0 a3 3 0 1 0 -6 0zM788.44 357.69 a3 3 0 1 0 6 0 a3 3 0 1 0 -6 0zM807.49 368.69 a3 3 0 1 0 6 0 a3 3 0 1 0 -6 0zM807.49 390.69 a3 3 0 1 0 6 0 a3 3 0 1 0 -6 0zM788.44 401.69 a3 3 0 1 0 6 0 a3 3 0 1 0 -6 0zM788.44 423.69 a3 3 0 1 0 6 0 a3 3 0 1 0 -6 0zM769.38 434.69 a3 3 0 1 0 6 0 a3 3 0 1 0 -6 0zM750.33 423.69 a3 3 0 1 0 6 0 a3 3 0 1 0 -6 0zM826.54 27.69 a3 3 0 1 0 6 0 a3 3 0 1 0 -6 0zM845.6 38.69 a3 3 0 1 0 6 0 a3 3 0 1 0 -6 0zM845.6 60.69 a3 3 0 1 0 6 0 a3 3 0 1 0 -6 0zM826.54 71.69 a3 3 0 1 0 6 0 a3 3 0 1 0 -6 0zM807.49 60.69 a3 3 0 1 0 6 0 a3 3 0 1 0 -6 0zM807.49 38.69 a3 3 0 1 0 6 0 a3 3 0 1 0 -6 0zM807.49 126.69 a3 3 0 1 0 6 0 a3 3 0 1 0 -6 0zM826.54 137.69 a3 3 0 1 0 6 0 a3 3 0 1 0 -6 0zM826.54 159.69 a3 3 0 1 0 6 0 a3 3 0 1 0 -6 0zM807.49 170.69 a3 3 0 1 0 6 0 a3 3 0 1 0 -6 0zM788.44 159.69 a3 3 0 1 0 6 0 a3 3 0 1 0 -6 0zM788.44 137.69 a3 3 0 1 0 6 0 a3 3 0 1 0 -6 0zM807.49 192.69 a3 3 0 1 0 6 0 a3 3 0 1 0 -6 0zM826.54 203.69 a3 3 0 1 0 6 0 a3 3 0 1 0 -6 0zM826.54 225.69 a3 3 0 1 0 6 0 a3 3 0 1 0 -6 0zM807.49 236.69 a3 3 0 1 0 6 0 a3 3 0 1 0 -6 0zM788.44 225.69 a3 3 0 1 0 6 0 a3 3 0 1 0 -6 0zM788.44 203.69 a3 3 0 1 0 6 0 a3 3 0 1 0 -6 0zM807.49 258.69 a3 3 0 1 0 6 0 a3 3 0 1 0 -6 0zM826.54 269.69 a3 3 0 1 0 6 0 a3 3 0 1 0 -6 0zM826.54 291.69 a3 3 0 1 0 6 0 a3 3 0 1 0 -6 0zM788.44 269.69 a3 3 0 1 0 6 0 a3 3 0 1 0 -6 0zM845.6 302.69 a3 3 0 1 0 6 0 a3 3 0 1 0 -6 0zM845.6 324.69 a3 3 0 1 0 6 0 a3 3 0 1 0 -6 0zM826.54 335.69 a3 3 0 1 0 6 0 a3 3 0 1 0 -6 0zM845.6 -5.31 a3 3 0 1 0 6 0 a3 3 0 1 0 -6 0zM864.65 5.69 a3 3 0 1 0 6 0 a3 3 0 1 0 -6 0zM864.65 27.69 a3 3 0 1 0 6 0 a3 3 0 1 0 -6 0zM826.54 5.69 a3 3 0 1 0 6 0 a3 3 0 1 0 -6 0zM845.6 192.69 a3 3 0 1 0 6 0 a3 3 0 1 0 -6 0zM864.65 203.69 a3 3 0 1 0 6 0 a3 3 0 1 0 -6 0zM864.65 225.69 a3 3 0 1 0 6 0 a3 3 0 1 0 -6 0zM845.6 236.69 a3 3 0 1 0 6 0 a3 3 0 1 0 -6 0zM864.65 423.69 a3 3 0 1 0 6 0 a3 3 0 1 0 -6 0zM883.7 434.69 a3 3 0 1 0 6 0 a3 3 0 1 0 -6 0zM883.7 456.69 a3 3 0 1 0 6 0 a3 3 0 1 0 -6 0zM864.65 467.69 a3 3 0 1 0 6 0 a3 3 0 1 0 -6 0zM845.6 456.69 a3 3 0 1 0 6 0 a3 3 0 1 0 -6 0zM845.6 434.69 a3 3 0 1 0 6 0 a3 3 0 1 0 -6 0zM864.65 489.69 a3 3 0 1 0 6 0 a3 3 0 1 0 -6 0zM845.6 500.69 a3 3 0 1 0 6 0 a3 3 0 1 0 -6 0zM826.54 489.69 a3 3 0 1 0 6 0 a3 3 0 1 0 -6 0zM826.54 467.69 a3 3 0 1 0 6 0 a3 3 0 1 0 -6 0zM883.7 500.69 a3 3 0 1 0 6 0 a3 3 0 1 0 -6 0zM883.7 522.69 a3 3 0 1 0 6 0 a3 3 0 1 0 -6 0zM864.65 533.69 a3 3 0 1 0 6 0 a3 3 0 1 0 -6 0zM845.6 522.69 a3 3 0 1 0 6 0 a3 3 0 1 0 -6 0zM864.65 555.69 a3 3 0 1 0 6 0 a3 3 0 1 0 -6 0zM883.7 566.69 a3 3 0 1 0 6 0 a3 3 0 1 0 -6 0zM883.7 588.69 a3 3 0 1 0 6 0 a3 3 0 1 0 -6 0zM864.65 599.69 a3 3 0 1 0 6 0 a3 3 0 1 0 -6 0zM845.6 588.69 a3 3 0 1 0 6 0 a3 3 0 1 0 -6 0zM845.6 566.69 a3 3 0 1 0 6 0 a3 3 0 1 0 -6 0zM902.76 27.69 a3 3 0 1 0 6 0 a3 3 0 1 0 -6 0zM921.81 38.69 a3 3 0 1 0 6 0 a3 3 0 1 0 -6 0zM921.81 60.69 a3 3 0 1 0 6 0 a3 3 0 1 0 -6 0zM902.76 71.69 a3 3 0 1 0 6 0 a3 3 0 1 0 -6 0zM883.7 60.69 a3 3 0 1 0 6 0 a3 3 0 1 0 -6 0zM883.7 38.69 a3 3 0 1 0 6 0 a3 3 0 1 0 -6 0zM902.76 93.69 a3 3 0 1 0 6 0 a3 3 0 1 0 -6 0zM921.81 104.69 a3 3 0 1 0 6 0 a3 3 0 1 0 -6 0zM921.81 126.69 a3 3 0 1 0 6 0 a3 3 0 1 0 -6 0zM902.76 137.69 a3 3 0 1 0 6 0 a3 3 0 1 0 -6 0zM883.7 126.69 a3 3 0 1 0 6 0 a3 3 0 1 0 -6 0zM883.7 104.69 a3 3 0 1 0 6 0 a3 3 0 1 0 -6 0zM883.7 192.69 a3 3 0 1 0 6 0 a3 3 0 1 0 -6 0zM902.76 203.69 a3 3 0 1 0 6 0 a3 3 0 1 0 -6 0zM902.76 225.69 a3 3 0 1 0 6 0 a3 3 0 1 0 -6 0zM883.7 236.69 a3 3 0 1 0 6 0 a3 3 0 1 0 -6 0zM902.76 291.69 a3 3 0 1 0 6 0 a3 3 0 1 0 -6 0zM921.81 302.69 a3 3 0 1 0 6 0 a3 3 0 1 0 -6 0zM921.81 324.69 a3 3 0 1 0 6 0 a3 3 0 1 0 -6 0zM902.76 335.69 a3 3 0 1 0 6 0 a3 3 0 1 0 -6 0zM883.7 324.69 a3 3 0 1 0 6 0 a3 3 0 1 0 -6 0zM883.7 302.69 a3 3 0 1 0 6 0 a3 3 0 1 0 -6 0zM902.76 357.69 a3 3 0 1 0 6 0 a3 3 0 1 0 -6 0zM921.81 368.69 a3 3 0 1 0 6 0 a3 3 0 1 0 -6 0zM921.81 390.69 a3 3 0 1 0 6 0 a3 3 0 1 0 -6 0zM902.76 401.69 a3 3 0 1 0 6 0 a3 3 0 1 0 -6 0zM883.7 390.69 a3 3 0 1 0 6 0 a3 3 0 1 0 -6 0zM883.7 368.69 a3 3 0 1 0 6 0 a3 3 0 1 0 -6 0zM902.76 489.69 a3 3 0 1 0 6 0 a3 3 0 1 0 -6 0zM921.81 500.69 a3 3 0 1 0 6 0 a3 3 0 1 0 -6 0zM921.81 522.69 a3 3 0 1 0 6 0 a3 3 0 1 0 -6 0zM902.76 533.69 a3 3 0 1 0 6 0 a3 3 0 1 0 -6 0zM902.76 555.69 a3 3 0 1 0 6 0 a3 3 0 1 0 -6 0zM921.81 566.69 a3 3 0 1 0 6 0 a3 3 0 1 0 -6 0zM921.81 588.69 a3 3 0 1 0 6 0 a3 3 0 1 0 -6 0zM902.76 599.69 a3 3 0 1 0 6 0 a3 3 0 1 0 -6 0zM940.86 27.69 a3 3 0 1 0 6 0 a3 3 0 1 0 -6 0zM959.91 38.69 a3 3 0 1 0 6 0 a3 3 0 1 0 -6 0zM959.91 60.69 a3 3 0 1 0 6 0 a3 3 0 1 0 -6 0zM940.86 71.69 a3 3 0 1 0 6 0 a3 3 0 1 0 -6 0zM940.86 93.69 a3 3 0 1 0 6 0 a3 3 0 1 0 -6 0zM959.91 104.69 a3 3 0 1 0 6 0 a3 3 0 1 0 -6 0zM959.91 126.69 a3 3 0 1 0 6 0 a3 3 0 1 0 -6 0zM940.86 137.69 a3 3 0 1 0 6 0 a3 3 0 1 0 -6 0zM940.86 159.69 a3 3 0 1 0 6 0 a3 3 0 1 0 -6 0zM921.81 170.69 a3 3 0 1 0 6 0 a3 3 0 1 0 -6 0zM902.76 159.69 a3 3 0 1 0 6 0 a3 3 0 1 0 -6 0zM940.86 225.69 a3 3 0 1 0 6 0 a3 3 0 1 0 -6 0zM959.91 236.69 a3 3 0 1 0 6 0 a3 3 0 1 0 -6 0zM959.91 258.69 a3 3 0 1 0 6 0 a3 3 0 1 0 -6 0zM940.86 269.69 a3 3 0 1 0 6 0 a3 3 0 1 0 -6 0zM921.81 258.69 a3 3 0 1 0 6 0 a3 3 0 1 0 -6 0zM921.81 236.69 a3 3 0 1 0 6 0 a3 3 0 1 0 -6 0zM940.86 291.69 a3 3 0 1 0 6 0 a3 3 0 1 0 -6 0zM902.76 269.69 a3 3 0 1 0 6 0 a3 3 0 1 0 -6 0zM959.91 302.69 a3 3 0 1 0 6 0 a3 3 0 1 0 -6 0zM959.91 324.69 a3 3 0 1 0 6 0 a3 3 0 1 0 -6 0zM940.86 335.69 a3 3 0 1 0 6 0 a3 3 0 1 0 -6 0zM940.86 401.69 a3 3 0 1 0 6 0 a3 3 0 1 0 -6 0zM940.86 423.69 a3 3 0 1 0 6 0 a3 3 0 1 0 -6 0zM921.81 434.69 a3 3 0 1 0 6 0 a3 3 0 1 0 -6 0zM902.76 423.69 a3 3 0 1 0 6 0 a3 3 0 1 0 -6 0zM959.91 434.69 a3 3 0 1 0 6 0 a3 3 0 1 0 -6 0zM959.91 456.69 a3 3 0 1 0 6 0 a3 3 0 1 0 -6 0zM940.86 467.69 a3 3 0 1 0 6 0 a3 3 0 1 0 -6 0zM921.81 456.69 a3 3 0 1 0 6 0 a3 3 0 1 0 -6 0zM940.86 489.69 a3 3 0 1 0 6 0 a3 3 0 1 0 -6 0zM902.76 467.69 a3 3 0 1 0 6 0 a3 3 0 1 0 -6 0zM978.97 137.69 a3 3 0 1 0 6 0 a3 3 0 1 0 -6 0zM978.97 159.69 a3 3 0 1 0 6 0 a3 3 0 1 0 -6 0zM959.91 170.69 a3 3 0 1 0 6 0 a3 3 0 1 0 -6 0zM978.97 291.69 a3 3 0 1 0 6 0 a3 3 0 1 0 -6 0zM998.02 302.69 a3 3 0 1 0 6 0 a3 3 0 1 0 -6 0zM998.02 324.69 a3 3 0 1 0 6 0 a3 3 0 1 0 -6 0zM978.97 335.69 a3 3 0 1 0 6 0 a3 3 0 1 0 -6 0zM978.97 423.69 a3 3 0 1 0 6 0 a3 3 0 1 0 -6 0zM998.02 434.69 a3 3 0 1 0 6 0 a3 3 0 1 0 -6 0zM998.02 456.69 a3 3 0 1 0 6 0 a3 3 0 1 0 -6 0zM978.97 467.69 a3 3 0 1 0 6 0 a3 3 0 1 0 -6 0zM978.97 489.69 a3 3 0 1 0 6 0 a3 3 0 1 0 -6 0zM959.91 500.69 a3 3 0 1 0 6 0 a3 3 0 1 0 -6 0zM978.97 555.69 a3 3 0 1 0 6 0 a3 3 0 1 0 -6 0zM998.02 566.69 a3 3 0 1 0 6 0 a3 3 0 1 0 -6 0zM998.02 588.69 a3 3 0 1 0 6 0 a3 3 0 1 0 -6 0zM978.97 599.69 a3 3 0 1 0 6 0 a3 3 0 1 0 -6 0zM959.91 588.69 a3 3 0 1 0 6 0 a3 3 0 1 0 -6 0zM959.91 566.69 a3 3 0 1 0 6 0 a3 3 0 1 0 -6 0zM1017.07 27.69 a3 3 0 1 0 6 0 a3 3 0 1 0 -6 0zM1036.13 38.69 a3 3 0 1 0 6 0 a3 3 0 1 0 -6 0zM1036.13 60.69 a3 3 0 1 0 6 0 a3 3 0 1 0 -6 0zM1017.07 71.69 a3 3 0 1 0 6 0 a3 3 0 1 0 -6 0zM998.02 60.69 a3 3 0 1 0 6 0 a3 3 0 1 0 -6 0zM998.02 38.69 a3 3 0 1 0 6 0 a3 3 0 1 0 -6 0zM1017.07 93.69 a3 3 0 1 0 6 0 a3 3 0 1 0 -6 0zM998.02 104.69 a3 3 0 1 0 6 0 a3 3 0 1 0 -6 0zM978.97 93.69 a3 3 0 1 0 6 0 a3 3 0 1 0 -6 0zM978.97 71.69 a3 3 0 1 0 6 0 a3 3 0 1 0 -6 0zM998.02 126.69 a3 3 0 1 0 6 0 a3 3 0 1 0 -6 0zM1017.07 137.69 a3 3 0 1 0 6 0 a3 3 0 1 0 -6 0zM1017.07 159.69 a3 3 0 1 0 6 0 a3 3 0 1 0 -6 0zM998.02 170.69 a3 3 0 1 0 6 0 a3 3 0 1 0 -6 0zM998.02 192.69 a3 3 0 1 0 6 0 a3 3 0 1 0 -6 0zM1017.07 203.69 a3 3 0 1 0 6 0 a3 3 0 1 0 -6 0zM1017.07 225.69 a3 3 0 1 0 6 0 a3 3 0 1 0 -6 0zM998.02 236.69 a3 3 0 1 0 6 0 a3 3 0 1 0 -6 0zM978.97 225.69 a3 3 0 1 0 6 0 a3 3 0 1 0 -6 0zM978.97 203.69 a3 3 0 1 0 6 0 a3 3 0 1 0 -6 0zM1017.07 357.69 a3 3 0 1 0 6 0 a3 3 0 1 0 -6 0zM1036.13 368.69 a3 3 0 1 0 6 0 a3 3 0 1 0 -6 0zM1036.13 390.69 a3 3 0 1 0 6 0 a3 3 0 1 0 -6 0zM1017.07 401.69 a3 3 0 1 0 6 0 a3 3 0 1 0 -6 0zM998.02 390.69 a3 3 0 1 0 6 0 a3 3 0 1 0 -6 0zM998.02 368.69 a3 3 0 1 0 6 0 a3 3 0 1 0 -6 0zM1017.07 467.69 a3 3 0 1 0 6 0 a3 3 0 1 0 -6 0zM1017.07 489.69 a3 3 0 1 0 6 0 a3 3 0 1 0 -6 0zM998.02 500.69 a3 3 0 1 0 6 0 a3 3 0 1 0 -6 0zM1055.18 93.69 a3 3 0 1 0 6 0 a3 3 0 1 0 -6 0zM1074.23 104.69 a3 3 0 1 0 6 0 a3 3 0 1 0 -6 0zM1074.23 126.69 a3 3 0 1 0 6 0 a3 3 0 1 0 -6 0zM1055.18 137.69 a3 3 0 1 0 6 0 a3 3 0 1 0 -6 0zM1036.13 126.69 a3 3 0 1 0 6 0 a3 3 0 1 0 -6 0zM1036.13 104.69 a3 3 0 1 0 6 0 a3 3 0 1 0 -6 0zM1036.13 192.69 a3 3 0 1 0 6 0 a3 3 0 1 0 -6 0zM1055.18 203.69 a3 3 0 1 0 6 0 a3 3 0 1 0 -6 0zM1055.18 225.69 a3 3 0 1 0 6 0 a3 3 0 1 0 -6 0zM1036.13 236.69 a3 3 0 1 0 6 0 a3 3 0 1 0 -6 0zM1036.13 324.69 a3 3 0 1 0 6 0 a3 3 0 1 0 -6 0zM1055.18 335.69 a3 3 0 1 0 6 0 a3 3 0 1 0 -6 0zM1055.18 357.69 a3 3 0 1 0 6 0 a3 3 0 1 0 -6 0zM1017.07 335.69 a3 3 0 1 0 6 0 a3 3 0 1 0 -6 0zM1074.23 368.69 a3 3 0 1 0 6 0 a3 3 0 1 0 -6 0zM1074.23 390.69 a3 3 0 1 0 6 0 a3 3 0 1 0 -6 0zM1055.18 401.69 a3 3 0 1 0 6 0 a3 3 0 1 0 -6 0zM1055.18 423.69 a3 3 0 1 0 6 0 a3 3 0 1 0 -6 0zM1074.23 434.69 a3 3 0 1 0 6 0 a3 3 0 1 0 -6 0zM1074.23 456.69 a3 3 0 1 0 6 0 a3 3 0 1 0 -6 0zM1055.18 467.69 a3 3 0 1 0 6 0 a3 3 0 1 0 -6 0zM1036.13 456.69 a3 3 0 1 0 6 0 a3 3 0 1 0 -6 0zM1036.13 434.69 a3 3 0 1 0 6 0 a3 3 0 1 0 -6 0zM1093.29 27.69 a3 3 0 1 0 6 0 a3 3 0 1 0 -6 0zM1112.34 38.69 a3 3 0 1 0 6 0 a3 3 0 1 0 -6 0zM1112.34 60.69 a3 3 0 1 0 6 0 a3 3 0 1 0 -6 0zM1093.29 71.69 a3 3 0 1 0 6 0 a3 3 0 1 0 -6 0zM1074.23 60.69 a3 3 0 1 0 6 0 a3 3 0 1 0 -6 0zM1074.23 38.69 a3 3 0 1 0 6 0 a3 3 0 1 0 -6 0zM1093.29 93.69 a3 3 0 1 0 6 0 a3 3 0 1 0 -6 0zM1112.34 104.69 a3 3 0 1 0 6 0 a3 3 0 1 0 -6 0zM1112.34 126.69 a3 3 0 1 0 6 0 a3 3 0 1 0 -6 0zM1093.29 137.69 a3 3 0 1 0 6 0 a3 3 0 1 0 -6 0zM1074.23 192.69 a3 3 0 1 0 6 0 a3 3 0 1 0 -6 0zM1093.29 203.69 a3 3 0 1 0 6 0 a3 3 0 1 0 -6 0zM1093.29 225.69 a3 3 0 1 0 6 0 a3 3 0 1 0 -6 0zM1074.23 236.69 a3 3 0 1 0 6 0 a3 3 0 1 0 -6 0zM1074.23 258.69 a3 3 0 1 0 6 0 a3 3 0 1 0 -6 0zM1093.29 269.69 a3 3 0 1 0 6 0 a3 3 0 1 0 -6 0zM1093.29 291.69 a3 3 0 1 0 6 0 a3 3 0 1 0 -6 0zM1074.23 302.69 a3 3 0 1 0 6 0 a3 3 0 1 0 -6 0zM1055.18 291.69 a3 3 0 1 0 6 0 a3 3 0 1 0 -6 0zM1055.18 269.69 a3 3 0 1 0 6 0 a3 3 0 1 0 -6 0zM1074.23 324.69 a3 3 0 1 0 6 0 a3 3 0 1 0 -6 0zM1093.29 335.69 a3 3 0 1 0 6 0 a3 3 0 1 0 -6 0zM1093.29 357.69 a3 3 0 1 0 6 0 a3 3 0 1 0 -6 0zM1112.34 368.69 a3 3 0 1 0 6 0 a3 3 0 1 0 -6 0zM1112.34 390.69 a3 3 0 1 0 6 0 a3 3 0 1 0 -6 0zM1093.29 401.69 a3 3 0 1 0 6 0 a3 3 0 1 0 -6 0zM1093.29 489.69 a3 3 0 1 0 6 0 a3 3 0 1 0 -6 0zM1112.34 500.69 a3 3 0 1 0 6 0 a3 3 0 1 0 -6 0zM1112.34 522.69 a3 3 0 1 0 6 0 a3 3 0 1 0 -6 0zM1093.29 533.69 a3 3 0 1 0 6 0 a3 3 0 1 0 -6 0zM1074.23 522.69 a3 3 0 1 0 6 0 a3 3 0 1 0 -6 0zM1074.23 500.69 a3 3 0 1 0 6 0 a3 3 0 1 0 -6 0zM1131.39 357.69 a3 3 0 1 0 6 0 a3 3 0 1 0 -6 0zM1150.45 368.69 a3 3 0 1 0 6 0 a3 3 0 1 0 -6 0zM1150.45 390.69 a3 3 0 1 0 6 0 a3 3 0 1 0 -6 0zM1131.39 401.69 a3 3 0 1 0 6 0 a3 3 0 1 0 -6 0zM1131.39 423.69 a3 3 0 1 0 6 0 a3 3 0 1 0 -6 0zM1150.45 434.69 a3 3 0 1 0 6 0 a3 3 0 1 0 -6 0zM1150.45 456.69 a3 3 0 1 0 6 0 a3 3 0 1 0 -6 0zM1131.39 467.69 a3 3 0 1 0 6 0 a3 3 0 1 0 -6 0zM1112.34 456.69 a3 3 0 1 0 6 0 a3 3 0 1 0 -6 0zM1112.34 434.69 a3 3 0 1 0 6 0 a3 3 0 1 0 -6 0zM1131.39 533.69 a3 3 0 1 0 6 0 a3 3 0 1 0 -6 0zM1131.39 555.69 a3 3 0 1 0 6 0 a3 3 0 1 0 -6 0zM1112.34 566.69 a3 3 0 1 0 6 0 a3 3 0 1 0 -6 0zM1093.29 555.69 a3 3 0 1 0 6 0 a3 3 0 1 0 -6 0zM1150.45 566.69 a3 3 0 1 0 6 0 a3 3 0 1 0 -6 0zM1150.45 588.69 a3 3 0 1 0 6 0 a3 3 0 1 0 -6 0zM1131.39 599.69 a3 3 0 1 0 6 0 a3 3 0 1 0 -6 0zM1112.34 588.69 a3 3 0 1 0 6 0 a3 3 0 1 0 -6 0zM1169.5 27.69 a3 3 0 1 0 6 0 a3 3 0 1 0 -6 0zM1188.55 38.69 a3 3 0 1 0 6 0 a3 3 0 1 0 -6 0zM1188.55 60.69 a3 3 0 1 0 6 0 a3 3 0 1 0 -6 0zM1169.5 71.69 a3 3 0 1 0 6 0 a3 3 0 1 0 -6 0zM1150.45 60.69 a3 3 0 1 0 6 0 a3 3 0 1 0 -6 0zM1150.45 38.69 a3 3 0 1 0 6 0 a3 3 0 1 0 -6 0zM1169.5 93.69 a3 3 0 1 0 6 0 a3 3 0 1 0 -6 0zM1150.45 104.69 a3 3 0 1 0 6 0 a3 3 0 1 0 -6 0zM1131.39 93.69 a3 3 0 1 0 6 0 a3 3 0 1 0 -6 0zM1131.39 71.69 a3 3 0 1 0 6 0 a3 3 0 1 0 -6 0zM1188.55 104.69 a3 3 0 1 0 6 0 a3 3 0 1 0 -6 0zM1188.55 126.69 a3 3 0 1 0 6 0 a3 3 0 1 0 -6 0zM1169.5 137.69 a3 3 0 1 0 6 0 a3 3 0 1 0 -6 0zM1150.45 126.69 a3 3 0 1 0 6 0 a3 3 0 1 0 -6 0zM1150.45 258.69 a3 3 0 1 0 6 0 a3 3 0 1 0 -6 0zM1169.5 269.69 a3 3 0 1 0 6 0 a3 3 0 1 0 -6 0zM1169.5 291.69 a3 3 0 1 0 6 0 a3 3 0 1 0 -6 0zM1150.45 302.69 a3 3 0 1 0 6 0 a3 3 0 1 0 -6 0zM1131.39 291.69 a3 3 0 1 0 6 0 a3 3 0 1 0 -6 0zM1131.39 269.69 a3 3 0 1 0 6 0 a3 3 0 1 0 -6 0zM1150.45 324.69 a3 3 0 1 0 6 0 a3 3 0 1 0 -6 0zM1169.5 335.69 a3 3 0 1 0 6 0 a3 3 0 1 0 -6 0zM1169.5 357.69 a3 3 0 1 0 6 0 a3 3 0 1 0 -6 0zM1131.39 335.69 a3 3 0 1 0 6 0 a3 3 0 1 0 -6 0zM1169.5 401.69 a3 3 0 1 0 6 0 a3 3 0 1 0 -6 0zM1169.5 423.69 a3 3 0 1 0 6 0 a3 3 0 1 0 -6 0zM1188.55 434.69 a3 3 0 1 0 6 0 a3 3 0 1 0 -6 0zM1188.55 456.69 a3 3 0 1 0 6 0 a3 3 0 1 0 -6 0zM1169.5 467.69 a3 3 0 1 0 6 0 a3 3 0 1 0 -6 0zM1169.5 489.69 a3 3 0 1 0 6 0 a3 3 0 1 0 -6 0zM1150.45 500.69 a3 3 0 1 0 6 0 a3 3 0 1 0 -6 0zM1131.39 489.69 a3 3 0 1 0 6 0 a3 3 0 1 0 -6 0zM1188.55 500.69 a3 3 0 1 0 6 0 a3 3 0 1 0 -6 0zM1188.55 522.69 a3 3 0 1 0 6 0 a3 3 0 1 0 -6 0zM1169.5 533.69 a3 3 0 1 0 6 0 a3 3 0 1 0 -6 0zM1150.45 522.69 a3 3 0 1 0 6 0 a3 3 0 1 0 -6 0zM1169.5 555.69 a3 3 0 1 0 6 0 a3 3 0 1 0 -6 0zM1207.61 71.69 a3 3 0 1 0 6 0 a3 3 0 1 0 -6 0zM1207.61 93.69 a3 3 0 1 0 6 0 a3 3 0 1 0 -6 0zM1226.66 104.69 a3 3 0 1 0 6 0 a3 3 0 1 0 -6 0zM1226.66 126.69 a3 3 0 1 0 6 0 a3 3 0 1 0 -6 0zM1207.61 137.69 a3 3 0 1 0 6 0 a3 3 0 1 0 -6 0zM1207.61 159.69 a3 3 0 1 0 6 0 a3 3 0 1 0 -6 0zM1226.66 170.69 a3 3 0 1 0 6 0 a3 3 0 1 0 -6 0zM1226.66 192.69 a3 3 0 1 0 6 0 a3 3 0 1 0 -6 0zM1207.61 203.69 a3 3 0 1 0 6 0 a3 3 0 1 0 -6 0zM1188.55 192.69 a3 3 0 1 0 6 0 a3 3 0 1 0 -6 0zM1188.55 170.69 a3 3 0 1 0 6 0 a3 3 0 1 0 -6 0zM1207.61 225.69 a3 3 0 1 0 6 0 a3 3 0 1 0 -6 0zM1188.55 236.69 a3 3 0 1 0 6 0 a3 3 0 1 0 -6 0zM1169.5 225.69 a3 3 0 1 0 6 0 a3 3 0 1 0 -6 0zM1169.5 203.69 a3 3 0 1 0 6 0 a3 3 0 1 0 -6 0zM1207.61 291.69 a3 3 0 1 0 6 0 a3 3 0 1 0 -6 0zM1226.66 302.69 a3 3 0 1 0 6 0 a3 3 0 1 0 -6 0zM1226.66 324.69 a3 3 0 1 0 6 0 a3 3 0 1 0 -6 0zM1207.61 335.69 a3 3 0 1 0 6 0 a3 3 0 1 0 -6 0zM1188.55 324.69 a3 3 0 1 0 6 0 a3 3 0 1 0 -6 0zM1188.55 302.69 a3 3 0 1 0 6 0 a3 3 0 1 0 -6 0zM1188.55 390.69 a3 3 0 1 0 6 0 a3 3 0 1 0 -6 0zM1207.61 401.69 a3 3 0 1 0 6 0 a3 3 0 1 0 -6 0zM1207.61 423.69 a3 3 0 1 0 6 0 a3 3 0 1 0 -6 0zM1226.66 434.69 a3 3 0 1 0 6 0 a3 3 0 1 0 -6 0zM1226.66 456.69 a3 3 0 1 0 6 0 a3 3 0 1 0 -6 0zM1207.61 467.69 a3 3 0 1 0 6 0 a3 3 0 1 0 -6 0zM1207.61 489.69 a3 3 0 1 0 6 0 a3 3 0 1 0 -6 0zM1207.61 555.69 a3 3 0 1 0 6 0 a3 3 0 1 0 -6 0zM1226.66 566.69 a3 3 0 1 0 6 0 a3 3 0 1 0 -6 0zM1226.66 588.69 a3 3 0 1 0 6 0 a3 3 0 1 0 -6 0zM1207.61 599.69 a3 3 0 1 0 6 0 a3 3 0 1 0 -6 0zM1188.55 588.69 a3 3 0 1 0 6 0 a3 3 0 1 0 -6 0zM1188.55 566.69 a3 3 0 1 0 6 0 a3 3 0 1 0 -6 0zM1226.66 -5.31 a3 3 0 1 0 6 0 a3 3 0 1 0 -6 0zM1245.71 5.69 a3 3 0 1 0 6 0 a3 3 0 1 0 -6 0zM1245.71 27.69 a3 3 0 1 0 6 0 a3 3 0 1 0 -6 0zM1226.66 38.69 a3 3 0 1 0 6 0 a3 3 0 1 0 -6 0zM1207.61 27.69 a3 3 0 1 0 6 0 a3 3 0 1 0 -6 0zM1207.61 5.69 a3 3 0 1 0 6 0 a3 3 0 1 0 -6 0zM1264.76 38.69 a3 3 0 1 0 6 0 a3 3 0 1 0 -6 0zM1264.76 60.69 a3 3 0 1 0 6 0 a3 3 0 1 0 -6 0zM1245.71 71.69 a3 3 0 1 0 6 0 a3 3 0 1 0 -6 0zM1226.66 60.69 a3 3 0 1 0 6 0 a3 3 0 1 0 -6 0zM1245.71 159.69 a3 3 0 1 0 6 0 a3 3 0 1 0 -6 0zM1264.76 170.69 a3 3 0 1 0 6 0 a3 3 0 1 0 -6 0zM1264.76 192.69 a3 3 0 1 0 6 0 a3 3 0 1 0 -6 0zM1245.71 203.69 a3 3 0 1 0 6 0 a3 3 0 1 0 -6 0zM1245.71 335.69 a3 3 0 1 0 6 0 a3 3 0 1 0 -6 0zM1245.71 357.69 a3 3 0 1 0 6 0 a3 3 0 1 0 -6 0zM1226.66 368.69 a3 3 0 1 0 6 0 a3 3 0 1 0 -6 0zM1207.61 357.69 a3 3 0 1 0 6 0 a3 3 0 1 0 -6 0zM1226.66 522.69 a3 3 0 1 0 6 0 a3 3 0 1 0 -6 0zM1245.71 533.69 a3 3 0 1 0 6 0 a3 3 0 1 0 -6 0zM1245.71 555.69 a3 3 0 1 0 6 0 a3 3 0 1 0 -6 0zM1207.61 533.69 a3 3 0 1 0 6 0 a3 3 0 1 0 -6 0zM1283.82 71.69 a3 3 0 1 0 6 0 a3 3 0 1 0 -6 0zM1283.82 93.69 a3 3 0 1 0 6 0 a3 3 0 1 0 -6 0zM1264.76 104.69 a3 3 0 1 0 6 0 a3 3 0 1 0 -6 0zM1245.71 93.69 a3 3 0 1 0 6 0 a3 3 0 1 0 -6 0zM1283.82 291.69 a3 3 0 1 0 6 0 a3 3 0 1 0 -6 0zM1302.87 302.69 a3 3 0 1 0 6 0 a3 3 0 1 0 -6 0zM1302.87 324.69 a3 3 0 1 0 6 0 a3 3 0 1 0 -6 0zM1283.82 335.69 a3 3 0 1 0 6 0 a3 3 0 1 0 -6 0zM1264.76 324.69 a3 3 0 1 0 6 0 a3 3 0 1 0 -6 0zM1264.76 302.69 a3 3 0 1 0 6 0 a3 3 0 1 0 -6 0zM1283.82 357.69 a3 3 0 1 0 6 0 a3 3 0 1 0 -6 0zM1302.87 368.69 a3 3 0 1 0 6 0 a3 3 0 1 0 -6 0zM1302.87 390.69 a3 3 0 1 0 6 0 a3 3 0 1 0 -6 0zM1283.82 401.69 a3 3 0 1 0 6 0 a3 3 0 1 0 -6 0zM1264.76 390.69 a3 3 0 1 0 6 0 a3 3 0 1 0 -6 0zM1264.76 368.69 a3 3 0 1 0 6 0 a3 3 0 1 0 -6 0zM1302.87 126.69 a3 3 0 1 0 6 0 a3 3 0 1 0 -6 0zM1321.92 137.69 a3 3 0 1 0 6 0 a3 3 0 1 0 -6 0zM1321.92 159.69 a3 3 0 1 0 6 0 a3 3 0 1 0 -6 0zM1302.87 170.69 a3 3 0 1 0 6 0 a3 3 0 1 0 -6 0zM1283.82 159.69 a3 3 0 1 0 6 0 a3 3 0 1 0 -6 0zM1283.82 137.69 a3 3 0 1 0 6 0 a3 3 0 1 0 -6 0zM1321.92 335.69 a3 3 0 1 0 6 0 a3 3 0 1 0 -6 0zM1321.92 357.69 a3 3 0 1 0 6 0 a3 3 0 1 0 -6 0zM1340.98 368.69 a3 3 0 1 0 6 0 a3 3 0 1 0 -6 0zM1340.98 390.69 a3 3 0 1 0 6 0 a3 3 0 1 0 -6 0zM1321.92 401.69 a3 3 0 1 0 6 0 a3 3 0 1 0 -6 0zM1321.92 423.69 a3 3 0 1 0 6 0 a3 3 0 1 0 -6 0zM1302.87 434.69 a3 3 0 1 0 6 0 a3 3 0 1 0 -6 0zM1283.82 423.69 a3 3 0 1 0 6 0 a3 3 0 1 0 -6 0zM1302.87 456.69 a3 3 0 1 0 6 0 a3 3 0 1 0 -6 0zM1321.92 467.69 a3 3 0 1 0 6 0 a3 3 0 1 0 -6 0zM1321.92 489.69 a3 3 0 1 0 6 0 a3 3 0 1 0 -6 0zM1302.87 500.69 a3 3 0 1 0 6 0 a3 3 0 1 0 -6 0zM1283.82 489.69 a3 3 0 1 0 6 0 a3 3 0 1 0 -6 0zM1283.82 467.69 a3 3 0 1 0 6 0 a3 3 0 1 0 -6 0zM1340.98 -5.31 a3 3 0 1 0 6 0 a3 3 0 1 0 -6 0zM1360.03 5.69 a3 3 0 1 0 6 0 a3 3 0 1 0 -6 0zM1360.03 27.69 a3 3 0 1 0 6 0 a3 3 0 1 0 -6 0zM1340.98 38.69 a3 3 0 1 0 6 0 a3 3 0 1 0 -6 0zM1321.92 27.69 a3 3 0 1 0 6 0 a3 3 0 1 0 -6 0zM1321.92 5.69 a3 3 0 1 0 6 0 a3 3 0 1 0 -6 0zM1379.08 38.69 a3 3 0 1 0 6 0 a3 3 0 1 0 -6 0zM1379.08 60.69 a3 3 0 1 0 6 0 a3 3 0 1 0 -6 0zM1360.03 71.69 a3 3 0 1 0 6 0 a3 3 0 1 0 -6 0zM1340.98 60.69 a3 3 0 1 0 6 0 a3 3 0 1 0 -6 0zM1360.03 93.69 a3 3 0 1 0 6 0 a3 3 0 1 0 -6 0zM1340.98 104.69 a3 3 0 1 0 6 0 a3 3 0 1 0 -6 0zM1321.92 93.69 a3 3 0 1 0 6 0 a3 3 0 1 0 -6 0zM1321.92 71.69 a3 3 0 1 0 6 0 a3 3 0 1 0 -6 0zM1340.98 192.69 a3 3 0 1 0 6 0 a3 3 0 1 0 -6 0zM1360.03 203.69 a3 3 0 1 0 6 0 a3 3 0 1 0 -6 0zM1360.03 225.69 a3 3 0 1 0 6 0 a3 3 0 1 0 -6 0zM1340.98 236.69 a3 3 0 1 0 6 0 a3 3 0 1 0 -6 0zM1321.92 225.69 a3 3 0 1 0 6 0 a3 3 0 1 0 -6 0zM1321.92 203.69 a3 3 0 1 0 6 0 a3 3 0 1 0 -6 0zM1379.08 236.69 a3 3 0 1 0 6 0 a3 3 0 1 0 -6 0zM1379.08 258.69 a3 3 0 1 0 6 0 a3 3 0 1 0 -6 0zM1360.03 269.69 a3 3 0 1 0 6 0 a3 3 0 1 0 -6 0zM1340.98 258.69 a3 3 0 1 0 6 0 a3 3 0 1 0 -6 0zM1360.03 291.69 a3 3 0 1 0 6 0 a3 3 0 1 0 -6 0zM1379.08 302.69 a3 3 0 1 0 6 0 a3 3 0 1 0 -6 0zM1379.08 324.69 a3 3 0 1 0 6 0 a3 3 0 1 0 -6 0zM1360.03 335.69 a3 3 0 1 0 6 0 a3 3 0 1 0 -6 0zM1340.98 324.69 a3 3 0 1 0 6 0 a3 3 0 1 0 -6 0zM1340.98 302.69 a3 3 0 1 0 6 0 a3 3 0 1 0 -6 0zM1340.98 456.69 a3 3 0 1 0 6 0 a3 3 0 1 0 -6 0zM1360.03 467.69 a3 3 0 1 0 6 0 a3 3 0 1 0 -6 0zM1360.03 489.69 a3 3 0 1 0 6 0 a3 3 0 1 0 -6 0zM1340.98 500.69 a3 3 0 1 0 6 0 a3 3 0 1 0 -6 0zM1340.98 522.69 a3 3 0 1 0 6 0 a3 3 0 1 0 -6 0zM1360.03 533.69 a3 3 0 1 0 6 0 a3 3 0 1 0 -6 0zM1360.03 555.69 a3 3 0 1 0 6 0 a3 3 0 1 0 -6 0zM1340.98 566.69 a3 3 0 1 0 6 0 a3 3 0 1 0 -6 0zM1321.92 555.69 a3 3 0 1 0 6 0 a3 3 0 1 0 -6 0zM1321.92 533.69 a3 3 0 1 0 6 0 a3 3 0 1 0 -6 0zM1379.08 566.69 a3 3 0 1 0 6 0 a3 3 0 1 0 -6 0zM1379.08 588.69 a3 3 0 1 0 6 0 a3 3 0 1 0 -6 0zM1360.03 599.69 a3 3 0 1 0 6 0 a3 3 0 1 0 -6 0zM1340.98 588.69 a3 3 0 1 0 6 0 a3 3 0 1 0 -6 0zM1379.08 -5.31 a3 3 0 1 0 6 0 a3 3 0 1 0 -6 0zM1398.14 5.69 a3 3 0 1 0 6 0 a3 3 0 1 0 -6 0zM1398.14 27.69 a3 3 0 1 0 6 0 a3 3 0 1 0 -6 0zM1398.14 71.69 a3 3 0 1 0 6 0 a3 3 0 1 0 -6 0zM1398.14 93.69 a3 3 0 1 0 6 0 a3 3 0 1 0 -6 0zM1379.08 104.69 a3 3 0 1 0 6 0 a3 3 0 1 0 -6 0zM1398.14 269.69 a3 3 0 1 0 6 0 a3 3 0 1 0 -6 0zM1398.14 291.69 a3 3 0 1 0 6 0 a3 3 0 1 0 -6 0zM1398.14 335.69 a3 3 0 1 0 6 0 a3 3 0 1 0 -6 0zM1398.14 357.69 a3 3 0 1 0 6 0 a3 3 0 1 0 -6 0zM1379.08 368.69 a3 3 0 1 0 6 0 a3 3 0 1 0 -6 0zM1360.03 357.69 a3 3 0 1 0 6 0 a3 3 0 1 0 -6 0zM1417.19 368.69 a3 3 0 1 0 6 0 a3 3 0 1 0 -6 0zM1417.19 390.69 a3 3 0 1 0 6 0 a3 3 0 1 0 -6 0zM1398.14 401.69 a3 3 0 1 0 6 0 a3 3 0 1 0 -6 0zM1379.08 390.69 a3 3 0 1 0 6 0 a3 3 0 1 0 -6 0zM1379.08 456.69 a3 3 0 1 0 6 0 a3 3 0 1 0 -6 0zM1398.14 467.69 a3 3 0 1 0 6 0 a3 3 0 1 0 -6 0zM1398.14 489.69 a3 3 0 1 0 6 0 a3 3 0 1 0 -6 0zM1379.08 500.69 a3 3 0 1 0 6 0 a3 3 0 1 0 -6 0zM1398.14 555.69 a3 3 0 1 0 6 0 a3 3 0 1 0 -6 0zM1417.19 566.69 a3 3 0 1 0 6 0 a3 3 0 1 0 -6 0zM1417.19 588.69 a3 3 0 1 0 6 0 a3 3 0 1 0 -6 0zM1398.14 599.69 a3 3 0 1 0 6 0 a3 3 0 1 0 -6 0zM1417.19 -5.31 a3 3 0 1 0 6 0 a3 3 0 1 0 -6 0zM1436.24 5.69 a3 3 0 1 0 6 0 a3 3 0 1 0 -6 0zM1436.24 27.69 a3 3 0 1 0 6 0 a3 3 0 1 0 -6 0zM1417.19 38.69 a3 3 0 1 0 6 0 a3 3 0 1 0 -6 0zM1436.24 225.69 a3 3 0 1 0 6 0 a3 3 0 1 0 -6 0zM1455.3 236.69 a3 3 0 1 0 6 0 a3 3 0 1 0 -6 0zM1455.3 258.69 a3 3 0 1 0 6 0 a3 3 0 1 0 -6 0zM1436.24 269.69 a3 3 0 1 0 6 0 a3 3 0 1 0 -6 0zM1417.19 258.69 a3 3 0 1 0 6 0 a3 3 0 1 0 -6 0zM1417.19 236.69 a3 3 0 1 0 6 0 a3 3 0 1 0 -6 0zM1436.24 291.69 a3 3 0 1 0 6 0 a3 3 0 1 0 -6 0zM1417.19 302.69 a3 3 0 1 0 6 0 a3 3 0 1 0 -6 0zM1417.19 324.69 a3 3 0 1 0 6 0 a3 3 0 1 0 -6 0zM1436.24 335.69 a3 3 0 1 0 6 0 a3 3 0 1 0 -6 0zM1436.24 357.69 a3 3 0 1 0 6 0 a3 3 0 1 0 -6 0zM1436.24 489.69 a3 3 0 1 0 6 0 a3 3 0 1 0 -6 0zM1455.3 500.69 a3 3 0 1 0 6 0 a3 3 0 1 0 -6 0zM1455.3 522.69 a3 3 0 1 0 6 0 a3 3 0 1 0 -6 0zM1436.24 533.69 a3 3 0 1 0 6 0 a3 3 0 1 0 -6 0zM1417.19 522.69 a3 3 0 1 0 6 0 a3 3 0 1 0 -6 0zM1417.19 500.69 a3 3 0 1 0 6 0 a3 3 0 1 0 -6 0z" fill="rgba(171, 136, 105, 1)"></path></g><defs><mask id="SvgjsMask1228"><rect width="1440" height="560" fill="#ffffff"></rect></mask></defs></svg>